<?xml version="1.0" standalone="no"?>
<!DOCTYPE svg PUBLIC "-//W3C//DTD SVG 20010904//EN"
 "http://www.w3.org/TR/2001/REC-SVG-20010904/DTD/svg10.dtd">
<svg version="1.0" xmlns="http://www.w3.org/2000/svg"
 width="270.000000pt" height="270.000000pt" viewBox="0 0 270.000000 270.000000"
 preserveAspectRatio="xMidYMid meet">
<metadata>
Created by potrace 1.14, written by Peter Selinger 2001-2017
</metadata>
<g transform="translate(0.000000,270.000000) scale(0.100000,-0.100000)"
fill="#000000" stroke="none">
<path d="M1225 2693 c-224 -26 -448 -109 -635 -236 -105 -72 -274 -244 -344
-351 -82 -125 -171 -321 -190 -417 -2 -13 -9 -44 -14 -69 -32 -143 -33 -368
-2 -515 5 -28 12 -59 13 -70 2 -11 6 -27 9 -35 3 -8 16 -44 28 -80 27 -79 99
-234 111 -238 5 -2 9 -8 9 -14 0 -21 105 -161 178 -236 110 -112 199 -181 325
-251 53 -29 214 -102 220 -99 1 0 28 -7 59 -16 180 -52 413 -64 603 -31 51 10
219 56 230 65 6 4 21 11 35 15 41 12 114 48 122 59 4 6 8 7 8 2 0 -5 8 -3 18
5 9 8 33 23 52 34 125 69 302 237 402 381 90 128 193 371 212 499 4 22 10 63
14 90 13 94 7 331 -12 425 -15 74 -63 224 -92 288 -13 29 -24 57 -24 62 0 6
-4 10 -10 10 -5 0 -9 4 -7 9 1 5 -31 59 -71 119 -208 315 -541 527 -922 588
-42 6 -282 11 -325 7z"/>
</g>
</svg>
