<?xml version="1.0" standalone="no"?>
<!DOCTYPE svg PUBLIC "-//W3C//DTD SVG 20010904//EN"
 "http://www.w3.org/TR/2001/REC-SVG-20010904/DTD/svg10.dtd">
<svg version="1.0" xmlns="http://www.w3.org/2000/svg"
 width="1080.000000pt" height="1080.000000pt" viewBox="0 0 1080.000000 1080.000000"
 preserveAspectRatio="xMidYMid meet">
<metadata>
Created by potrace 1.14, written by Peter Selinger 2001-2017
</metadata>
<g transform="translate(0.000000,1080.000000) scale(0.100000,-0.100000)"
fill="#000000" stroke="none">
<path d="M1 10618 c1 -101 6 -189 12 -195 6 -9 6 -13 -2 -13 -14 0 -10 -64 6
-78 8 -8 13 -7 17 4 3 8 10 13 15 10 5 -3 12 1 15 10 3 8 2 13 -3 9 -13 -7
-42 5 -35 16 3 5 0 9 -6 9 -6 0 -8 5 -5 10 7 12 26 14 24 3 -4 -27 1 -35 16
-23 8 7 15 9 15 6 0 -4 6 -1 14 6 15 14 12 28 -5 28 -6 0 -7 -5 -3 -12 4 -7 3
-8 -5 -4 -6 4 -9 12 -6 17 4 5 1 9 -5 9 -7 0 -9 -8 -5 -20 3 -11 2 -20 -3 -20
-5 0 -9 6 -9 13 0 6 -2 18 -4 26 -2 7 4 15 14 16 9 2 17 -1 17 -6 0 -5 5 -9
10 -9 6 0 10 7 10 16 0 8 -4 13 -9 9 -6 -3 -14 2 -19 11 -8 15 -10 15 -15 0
-4 -9 -14 -16 -24 -16 -11 0 -14 3 -7 8 6 4 16 17 23 29 10 19 15 21 37 13 32
-12 57 -13 50 -1 -3 5 1 11 9 15 8 3 15 0 15 -7 0 -8 4 -6 10 3 7 11 10 11 10
2 0 -7 5 -10 10 -7 6 4 8 10 6 14 -3 4 8 7 25 7 16 0 29 -4 29 -8 0 -5 5 -6
10 -3 6 4 8 11 5 16 -4 5 -2 9 4 9 5 0 12 -8 14 -17 4 -14 5 -13 6 4 0 12 6
25 13 29 6 4 8 3 4 -4 -3 -6 -1 -14 5 -18 8 -4 9 -3 5 4 -4 7 -2 13 3 13 21 3
26 5 46 16 11 7 14 13 7 13 -7 0 -10 5 -7 10 4 6 10 8 15 5 5 -3 12 0 16 6 4
7 3 9 -3 6 -6 -4 -18 2 -27 12 -16 17 -16 20 -1 35 15 15 15 16 0 16 -9 0 -14
4 -10 9 3 5 -3 12 -12 14 -16 4 -16 5 -1 6 9 0 20 -3 23 -9 9 -15 25 -12 25 5
0 8 -5 14 -11 13 -6 -2 -18 7 -26 20 -10 15 -12 22 -4 22 7 0 9 4 6 10 -3 6 1
7 9 4 19 -7 21 -24 4 -24 -8 -1 -5 -7 6 -15 10 -8 22 -12 27 -10 4 3 5 -5 3
-17 -2 -13 -1 -16 2 -8 4 8 12 18 18 22 7 5 6 8 -4 8 -13 0 -13 1 0 10 9 6 17
5 22 -3 4 -7 6 -1 5 14 -2 25 -28 59 -44 59 -4 -1 2 -9 15 -20 20 -17 21 -20
6 -34 -21 -22 -34 -12 -35 27 -1 18 -3 24 -6 14 -2 -9 -9 -15 -14 -11 -5 3 -7
9 -4 13 2 5 -77 9 -176 10 l-181 2 3 -183z m339 168 c0 -3 -4 -8 -10 -11 -5
-3 -10 -1 -10 4 0 6 5 11 10 11 6 0 10 -2 10 -4z m-10 -60 c0 -2 -8 -10 -17
-17 -16 -13 -17 -12 -4 4 13 16 21 21 21 13z m3 -79 c-3 -5 3 -17 12 -27 11
-12 13 -20 5 -25 -5 -3 -8 -10 -5 -15 3 -5 0 -12 -6 -16 -8 -5 -10 -1 -7 14 4
15 2 19 -8 15 -9 -3 -14 2 -14 14 0 10 -6 25 -12 33 -10 11 -9 11 6 0 18 -14
19 -13 12 13 -6 24 -5 27 8 15 7 -7 12 -17 9 -21z m-13 -83 c0 -3 -7 -1 -15 6
-8 7 -15 17 -15 22 0 5 7 3 15 -6 8 -8 15 -18 15 -22z"/>
<path d="M320 10617 c0 -8 7 -14 15 -14 11 0 12 4 4 14 -6 7 -13 13 -15 13 -2
0 -4 -6 -4 -13z"/>
<path d="M420 10796 c0 -2 7 -7 16 -10 8 -3 12 -2 9 4 -6 10 -25 14 -25 6z"/>
<path d="M3905 10790 c-3 -6 1 -7 9 -4 18 7 21 14 7 14 -6 0 -13 -4 -16 -10z"/>
<path d="M3940 10785 c-9 -10 -9 -15 -1 -15 6 0 11 5 11 11 0 5 5 7 12 3 7 -4
8 -3 4 4 -9 15 -11 15 -26 -3z"/>
<path d="M3986 10792 c-8 -13 9 -33 25 -30 8 2 20 10 27 18 12 13 13 13 9 -2
-6 -16 8 -19 30 -5 7 4 20 -4 32 -19 12 -15 21 -23 21 -19 0 4 -10 20 -23 35
-21 25 -25 26 -36 11 -11 -15 -12 -15 -7 1 5 16 -9 19 -31 5 -6 -4 -14 -1 -16
5 -3 8 -6 6 -6 -5 -1 -10 -6 -15 -11 -12 -6 4 -8 11 -5 16 4 5 4 9 1 9 -3 0
-7 -4 -10 -8z"/>
<path d="M4110 10793 c0 -2 9 -16 20 -30 11 -14 20 -22 20 -17 0 5 19 9 43 8
23 0 48 4 55 9 8 6 12 5 12 -3 0 -9 7 -7 20 5 20 18 21 18 14 0 -6 -15 -4 -17
10 -12 12 5 16 3 13 -5 -5 -14 -7 -14 -49 -4 -17 4 -28 2 -28 -4 0 -10 21 -14
48 -11 6 1 12 -3 12 -9 0 -5 5 -10 11 -10 5 0 8 4 5 9 -8 13 30 43 60 47 14 1
23 0 19 -4 -3 -3 9 -13 27 -22 22 -11 32 -22 30 -34 -3 -14 1 -16 19 -11 16 5
19 4 14 -5 -5 -9 -4 -11 4 -6 6 4 9 11 6 16 -7 12 12 23 26 14 8 -4 7 -9 -2
-15 -10 -6 -11 -9 -1 -9 6 0 12 -10 12 -22 0 -41 14 -51 38 -31 20 16 21 20 8
45 -8 15 -11 30 -8 34 4 4 2 4 -5 1 -6 -4 -14 -1 -16 5 -4 10 -6 10 -6 0 -1
-14 -21 -7 -21 8 0 15 44 2 59 -17 12 -16 13 -16 8 -1 -3 9 1 22 11 30 15 11
15 11 6 -2 -9 -12 -9 -18 2 -28 12 -11 14 -10 14 3 0 15 7 18 45 17 11 0 24 7
31 16 9 13 11 11 10 -8 -1 -14 5 -24 16 -25 10 -2 15 2 12 10 -9 22 12 25 34
5 14 -14 23 -16 28 -9 4 8 13 3 25 -12 16 -21 18 -22 13 -4 -4 16 0 21 15 21
14 0 17 -4 10 -12 -7 -8 -2 -10 17 -6 20 3 25 2 19 -7 -5 -9 -2 -9 13 0 12 7
18 17 16 21 -3 4 -1 8 4 8 5 0 14 -10 20 -22 6 -13 11 -17 11 -10 1 9 6 10 20
3 14 -8 23 -6 36 9 10 11 23 17 29 13 6 -3 8 -3 4 2 -11 12 35 34 48 23 7 -5
14 -2 18 8 5 12 9 14 20 5 7 -6 16 -7 20 -3 4 4 11 7 15 7 4 0 15 8 24 17 16
16 -10 17 -439 17 -351 1 -461 -2 -472 -12 -13 -9 -14 -9 -8 1 5 9 -8 12 -56
11 -35 0 -57 -3 -50 -6 6 -2 10 -9 7 -13 -3 -5 -12 -7 -20 -4 -8 4 -13 9 -11
13 3 4 -4 8 -15 8 -10 1 -19 -1 -19 -4z m31 -20 c13 -16 12 -17 -3 -4 -17 13
-22 21 -14 21 2 0 10 -8 17 -17z m58 -4 c-22 -14 -33 -10 -19 6 7 8 17 12 22
9 6 -4 5 -10 -3 -15z m261 -24 c14 -19 14 -19 -2 -6 -10 7 -18 18 -18 24 0 6
1 8 3 6 1 -2 9 -13 17 -24z m560 -15 c0 -16 -26 -29 -40 -20 -8 5 -18 6 -22 4
-4 -3 -8 0 -8 6 0 6 10 8 26 4 17 -4 25 -3 21 3 -3 5 0 10 8 10 8 0 15 -4 15
-7z m-530 -9 c0 -5 -7 -12 -16 -15 -14 -5 -15 -4 -4 9 14 17 20 19 20 6z m420
-1 c0 -5 -2 -10 -4 -10 -3 0 -8 5 -11 10 -3 6 -1 10 4 10 6 0 11 -4 11 -10z
m-350 -30 c0 -5 -7 -7 -15 -4 -8 4 -12 10 -9 15 6 11 24 2 24 -11z"/>
<path d="M5400 10790 c13 -9 13 -10 0 -11 -8 -1 -19 0 -25 1 -5 1 -6 -2 -2 -6
14 -14 61 -10 75 6 8 8 11 10 8 3 -4 -6 3 -15 14 -18 16 -5 18 -10 10 -20 -8
-9 -8 -15 0 -20 5 -3 10 -14 10 -23 0 -13 -7 -9 -26 13 -21 25 -23 26 -10 4 9
-14 14 -28 11 -30 -2 -3 5 -5 15 -6 12 -1 20 5 21 15 0 10 5 6 11 -10 5 -16
14 -28 19 -28 6 0 7 5 4 10 -3 6 0 10 8 10 8 0 14 -8 13 -17 -1 -12 7 -18 22
-19 13 -1 22 4 22 13 0 8 5 11 12 7 6 -4 8 -3 4 4 -3 6 -2 13 4 17 5 3 10 -1
10 -9 0 -20 17 -29 26 -15 4 8 3 9 -4 5 -19 -11 -14 5 6 20 16 13 16 14 -2 7
-15 -5 -17 -3 -11 7 6 10 4 12 -8 7 -9 -3 -19 -2 -22 3 -4 6 0 10 8 10 21 0
50 47 35 56 -7 5 -8 3 -3 -6 6 -10 4 -12 -9 -7 -10 4 -22 7 -28 7 -6 0 -7 8
-4 18 5 14 4 14 -9 -2 -13 -17 -15 -18 -15 -3 0 14 -11 17 -75 17 -43 0 -75
-4 -75 -10 0 -5 -5 -10 -11 -10 -5 0 -8 4 -5 8 2 4 -5 9 -17 9 -17 2 -19 0 -7
-7z m160 -12 c0 -10 2 -10 9 0 7 11 9 10 15 -3 3 -9 11 -13 18 -9 8 5 9 2 5
-10 -4 -10 -3 -15 3 -11 6 3 10 2 10 -4 0 -5 -5 -13 -11 -17 -8 -4 -8 -9 0
-17 8 -8 5 -17 -11 -34 -24 -26 -40 -30 -32 -8 4 8 -1 17 -10 21 -9 3 -14 10
-11 15 6 9 -29 31 -38 23 -3 -3 -8 0 -13 7 -5 8 -3 10 6 4 10 -6 12 -4 7 8 -3
9 -3 16 1 15 14 -3 42 14 36 23 -3 5 0 9 5 9 6 0 11 -6 11 -12z m80 -33 c0 -8
-2 -15 -4 -15 -2 0 -6 7 -10 15 -3 8 -1 15 4 15 6 0 10 -7 10 -15z m-106 -50
c-4 -8 -8 -15 -10 -15 -2 0 -4 7 -4 15 0 8 4 15 10 15 5 0 7 -7 4 -15z"/>
<path d="M5535 10750 c-10 -11 -15 -20 -11 -20 11 0 39 30 34 36 -3 2 -13 -5
-23 -16z"/>
<path d="M5574 10740 c7 -33 6 -34 -9 -16 -8 11 -15 15 -15 10 0 -6 5 -15 12
-22 7 -7 8 -12 4 -12 -5 0 -3 -7 4 -15 17 -21 30 -9 23 23 -3 15 -6 32 -7 39
-1 7 -6 16 -10 20 -5 4 -5 -8 -2 -27z m13 -45 c0 -8 -4 -12 -9 -9 -5 3 -6 10
-3 15 9 13 12 11 12 -6z"/>
<path d="M5712 10783 c-15 -11 -15 -12 -1 -7 10 3 20 1 24 -5 3 -6 12 -11 18
-11 7 0 6 4 -3 10 -10 6 -11 10 -2 10 6 0 12 4 12 8 0 13 -29 10 -48 -5z"/>
<path d="M5769 10788 c-1 -7 0 -22 1 -32 1 -13 -3 -17 -12 -13 -8 3 -15 -1
-15 -8 0 -8 7 -11 15 -7 12 4 14 1 9 -13 -6 -15 -5 -16 8 -5 11 9 18 10 28 1
8 -6 17 -7 22 -3 4 4 3 -3 -4 -15 -14 -27 -14 -33 0 -33 5 0 8 4 4 9 -3 5 0
13 6 17 8 4 9 3 5 -4 -4 -7 -2 -12 4 -12 6 0 9 -4 6 -9 -3 -5 2 -15 11 -22 10
-8 14 -9 10 -2 -4 6 -2 15 4 19 8 4 9 3 5 -4 -5 -8 1 -12 14 -12 12 0 18 -5
15 -10 -4 -6 -10 -8 -15 -5 -5 3 -11 1 -15 -4 -8 -13 33 -5 51 10 11 9 14 8
14 -5 0 -19 30 -22 31 -3 0 6 5 1 10 -12 8 -19 12 -21 24 -11 9 8 15 8 15 2 0
-6 8 -9 18 -7 9 1 23 -2 30 -8 7 -6 23 -12 35 -13 49 -7 61 -11 65 -22 2 -6
11 -8 19 -5 12 5 15 2 10 -10 -7 -18 19 -37 41 -30 6 3 12 1 12 -4 0 -12 58
-36 74 -30 10 4 13 -1 12 -17 -2 -14 3 -23 11 -23 9 0 11 7 7 20 -5 17 -4 18
9 6 8 -8 13 -16 12 -19 -2 -3 5 -6 15 -6 10 0 16 4 14 8 -3 4 0 8 5 8 6 0 11
-5 11 -11 0 -8 5 -8 15 1 8 7 12 17 8 23 -3 6 -1 7 6 3 6 -4 9 -11 6 -16 -5
-8 45 -3 54 5 2 2 13 0 24 -6 14 -8 18 -8 13 0 -10 15 37 14 53 -1 10 -11 11
-10 6 3 -7 19 10 35 20 19 11 -18 24 -10 20 13 -4 18 -2 20 8 7 11 -14 60 -24
53 -11 -6 9 21 31 28 24 3 -3 0 -13 -7 -22 -11 -14 -10 -14 6 -2 9 7 17 21 17
30 0 9 3 12 8 6 4 -5 13 -11 21 -13 12 -3 12 -1 0 14 -13 16 -12 16 9 5 13 -7
26 -10 30 -7 3 3 0 6 -7 6 -7 0 -9 5 -6 10 4 6 10 8 15 5 4 -3 11 1 13 7 4 10
6 10 6 0 1 -7 6 -10 11 -7 6 3 10 1 10 -6 0 -7 3 -9 6 -6 4 4 1 13 -6 21 -10
13 -9 19 4 31 18 18 21 30 7 20 -5 -3 -12 -1 -16 5 -4 7 -13 6 -27 -1 -11 -6
-18 -7 -15 -2 3 4 -1 17 -9 28 -8 11 -14 14 -14 6 0 -11 -3 -11 -15 -1 -8 7
-15 8 -15 3 0 -5 -13 -8 -30 -5 -16 2 -27 8 -24 13 3 5 -6 5 -19 0 -23 -9 -25
-7 -22 15 1 14 6 28 10 32 4 4 4 -4 1 -18 -5 -18 -4 -21 3 -10 5 9 11 22 13
30 2 7 17 27 35 44 25 24 30 33 22 48 -9 17 -36 18 -494 18 -381 0 -485 -3
-486 -12z m465 -270 c-3 -4 -11 -5 -19 -1 -21 7 -19 12 4 10 11 0 18 -5 15 -9z"/>
<path d="M8977 10787 c3 -4 19 -6 36 -3 18 3 35 0 40 -7 7 -9 10 -9 14 1 4 10
8 10 19 1 12 -9 13 -9 9 3 -4 11 -22 14 -64 14 -33 -1 -57 -5 -54 -9z"/>
<path d="M9105 10790 c3 -5 8 -10 11 -10 2 0 4 5 4 10 0 6 -5 10 -11 10 -5 0
-7 -4 -4 -10z"/>
<path d="M9163 10790 c-13 -5 -23 -15 -22 -22 0 -10 2 -10 6 0 2 6 9 12 14 12
6 0 8 -4 5 -8 -2 -4 4 -9 15 -9 10 -1 19 2 19 8 0 5 -5 9 -11 9 -5 0 -7 5 -4
10 7 12 7 12 -22 0z"/>
<path d="M9200 10792 c0 -5 10 -17 22 -28 12 -10 18 -13 14 -6 -4 6 -3 12 3
12 5 0 15 -8 20 -17 6 -10 11 -13 11 -8 0 6 18 10 39 11 30 0 38 -3 33 -15 -4
-10 -1 -12 8 -6 9 6 11 4 5 -4 -5 -9 -10 -10 -18 -2 -16 16 -27 13 -20 -4 3
-9 2 -15 -3 -14 -22 4 -35 -2 -28 -12 4 -8 -1 -9 -17 -4 -13 4 -26 7 -29 7
-22 0 -30 -3 -25 -12 3 -6 -1 -7 -9 -4 -10 4 -16 1 -16 -7 0 -8 -6 -5 -16 7
-8 10 -13 13 -9 7 4 -8 0 -13 -10 -13 -10 0 -14 5 -10 13 4 6 1 5 -7 -3 -14
-16 -93 -26 -84 -11 3 4 -11 6 -30 4 -21 -2 -33 0 -30 6 12 18 -24 4 -45 -18
-15 -16 -24 -19 -33 -12 -9 7 -16 7 -25 -2 -10 -9 -11 -8 -6 6 4 10 2 17 -4
17 -6 0 -11 -4 -11 -8 0 -4 -12 -7 -27 -6 -17 1 -27 7 -25 14 2 10 0 11 -11 2
-8 -7 -18 -8 -22 -4 -5 4 -5 2 -2 -4 8 -14 -20 -27 -28 -14 -4 6 -12 10 -18
10 -9 0 -9 -2 0 -8 8 -5 2 -12 -18 -19 -26 -10 -29 -10 -18 3 10 12 9 13 -5 8
-9 -3 -16 -12 -16 -19 0 -8 -5 -17 -12 -21 -7 -4 -8 -3 -4 4 4 7 1 12 -8 12
-9 0 -16 -5 -16 -12 0 -6 -7 -3 -16 8 -8 10 -13 14 -10 8 3 -7 -1 -14 -9 -18
-8 -3 -15 -1 -15 5 0 6 -5 7 -10 4 -6 -4 -8 -10 -5 -15 3 -5 1 -12 -5 -15 -6
-4 -10 -3 -9 2 3 19 -2 25 -14 14 -8 -6 -38 -13 -68 -16 -80 -7 -80 -7 -74
-23 4 -12 3 -12 -9 -3 -9 7 -17 8 -20 2 -3 -5 -21 -7 -39 -5 -21 2 -26 1 -14
-4 18 -8 18 -9 1 -22 -11 -9 -15 -10 -10 -2 9 16 5 15 -30 -2 -15 -8 -32 -12
-37 -9 -4 3 -3 -4 4 -15 7 -12 17 -18 21 -16 4 3 8 -4 8 -15 0 -12 -5 -21 -11
-21 -5 0 -7 5 -3 12 4 6 -11 -1 -33 -18 -23 -16 -40 -31 -38 -33 2 -2 17 6 33
18 26 18 31 19 36 5 4 -9 2 -12 -5 -8 -6 3 -23 -3 -39 -14 -21 -16 -30 -18
-40 -9 -10 9 -11 9 -6 0 5 -8 1 -13 -11 -14 -10 0 -33 -2 -50 -3 -18 -1 -33 1
-33 6 0 5 -5 6 -10 3 -6 -4 -7 -11 -4 -17 4 -7 0 -7 -12 -1 -11 6 -37 9 -59 8
-22 -1 -48 3 -59 8 -13 6 -16 6 -12 -2 8 -12 -6 -15 -18 -4 -3 4 -26 6 -49 5
-64 -3 -81 -6 -89 -17 -5 -6 -8 -6 -8 1 0 13 -48 7 -67 -8 -7 -5 -14 -5 -18 2
-3 5 -11 10 -16 10 -6 0 -7 -4 -4 -10 7 -11 -8 -14 -19 -3 -10 11 -37 12 -30
2 3 -5 11 -6 17 -3 7 4 9 3 4 -1 -12 -14 -46 -13 -40 1 5 14 -29 14 -39 -1 -5
-6 -8 -5 -8 2 0 9 -7 10 -24 3 -16 -6 -28 -5 -36 3 -10 10 -12 8 -7 -6 6 -17
5 -17 -15 -3 -20 14 -24 14 -40 -1 -14 -13 -18 -13 -18 -2 0 12 -2 12 -9 0 -6
-10 -10 -10 -16 -1 -5 8 -12 6 -27 -6 -16 -16 -21 -16 -28 -4 -8 12 -10 12
-10 -3 0 -10 -4 -16 -9 -12 -5 3 -12 1 -16 -4 -3 -6 -13 -7 -22 -4 -12 5 -14
3 -8 -7 6 -9 4 -11 -4 -6 -7 5 -10 14 -7 22 3 8 -1 14 -10 14 -8 0 -12 -4 -9
-10 3 -5 1 -10 -4 -10 -6 0 -12 5 -12 10 -1 6 -2 15 -3 20 -1 9 -17 13 -24 5
-2 -1 11 -17 29 -34 30 -30 30 -31 5 -20 -14 7 -26 16 -26 21 0 5 -4 6 -10 3
-6 -3 -7 1 -4 9 4 9 1 16 -6 16 -9 0 -9 4 -2 13 7 8 6 18 -4 31 -8 11 -14 30
-14 43 0 13 -5 23 -11 23 -5 0 -7 -6 -3 -12 4 -7 -2 -4 -13 7 -11 11 -18 24
-16 28 3 5 10 4 16 -2 6 -6 15 -11 20 -11 5 0 -3 10 -19 23 -28 21 -74 31 -74
15 0 -4 5 -8 10 -8 14 0 13 -27 -2 -36 -7 -4 -8 -3 -4 4 12 20 -26 49 -61 47
-18 -2 -33 1 -33 6 0 5 -5 9 -11 9 -5 0 -8 -4 -4 -9 3 -5 1 -12 -5 -16 -5 -3
-10 -2 -10 4 0 6 -7 8 -15 5 -8 -4 -12 -11 -8 -17 3 -6 1 -7 -6 -3 -6 4 -9 12
-6 17 12 19 -7 8 -32 -18 -14 -16 -20 -21 -14 -12 9 13 8 18 -4 23 -9 3 -14 2
-11 -2 3 -5 1 -22 -4 -38 -4 -16 -9 -21 -9 -11 -1 20 -10 21 -31 6 -12 -9 -11
-10 5 -4 15 5 17 3 9 -5 -7 -7 -28 -12 -48 -12 -20 0 -33 -4 -30 -9 3 -5 -2
-9 -10 -9 -11 0 -15 -8 -14 -25 1 -14 6 -25 11 -25 5 0 5 10 2 21 -5 15 -4 19
4 15 6 -4 11 -15 12 -24 0 -14 2 -13 9 3 8 19 11 18 14 -7 0 -6 11 -12 23 -13
12 -1 21 3 20 9 -1 6 6 11 16 11 10 0 21 5 25 11 4 5 24 18 45 28 22 10 35 22
31 28 -5 7 -2 8 5 4 9 -6 9 -12 -3 -25 -14 -15 -13 -17 4 -17 10 0 17 3 15 6
-5 9 38 6 52 -3 6 -4 13 -3 15 3 2 7 13 6 30 -2 27 -13 37 -28 18 -28 -13 0
-33 -142 -31 -217 0 -13 -5 -23 -11 -23 -9 0 -9 -3 -1 -11 6 -6 9 -18 6 -25
-3 -8 1 -22 8 -32 13 -16 12 -16 -5 -2 -22 17 -46 22 -46 8 0 -6 6 -8 13 -5 7
3 18 -3 25 -13 15 -24 3 -34 -15 -12 -11 15 -12 13 -3 -11 7 -19 7 -26 0 -22
-6 4 -10 -5 -10 -20 0 -18 -4 -24 -12 -19 -10 6 -10 5 -1 -8 7 -8 10 -18 6
-21 -3 -4 1 -7 10 -7 9 0 18 -4 22 -10 3 -5 -7 -5 -25 2 -17 5 -34 8 -37 4 -4
-3 0 -6 8 -6 8 0 15 -10 16 -22 2 -27 23 -40 42 -25 12 10 14 9 8 -6 -5 -13
-2 -17 10 -15 9 2 18 -2 20 -9 3 -8 -4 -11 -18 -8 -15 3 -19 1 -12 -6 5 -5 19
-11 31 -12 15 -1 18 -5 11 -13 -5 -6 -7 -19 -3 -28 3 -9 1 -16 -5 -16 -6 0 -8
-6 -5 -14 3 -8 -5 -21 -18 -30 -12 -9 -19 -16 -15 -16 4 0 3 -6 -3 -12 -6 -7
-19 -27 -28 -44 -9 -17 -26 -45 -37 -62 l-20 -32 -180 0 c-99 0 -242 -3 -317
-6 l-138 -6 0 44 c0 24 8 54 18 69 50 76 67 95 96 110 48 24 79 89 103 213 4
20 2 27 -6 22 -6 -4 -11 -1 -11 8 0 23 -18 29 -50 16 -17 -7 -37 -9 -47 -5
-26 12 -37 12 -49 3 -17 -12 -61 8 -68 30 -4 11 -3 27 0 37 6 14 4 16 -6 10
-9 -5 -11 -4 -6 4 4 6 11 9 16 6 4 -3 10 1 13 7 3 7 4 3 4 -9 -1 -13 -5 -23
-9 -23 -4 0 -8 -8 -8 -17 0 -15 2 -14 14 2 8 11 12 23 10 27 -3 5 -1 8 5 8 6
0 8 6 5 14 -3 8 0 17 6 21 8 5 8 10 0 20 -8 10 -8 15 2 21 7 4 10 4 6 -1 -4
-4 -3 -14 3 -21 9 -11 16 -11 39 1 16 8 30 18 32 22 3 5 4 3 2 -3 -1 -6 3 -17
9 -24 9 -10 9 -11 0 -6 -9 5 -11 2 -6 -10 5 -14 8 -13 19 7 7 13 10 28 7 33
-4 5 -1 6 5 2 8 -5 8 -15 2 -34 -9 -24 -9 -25 4 -9 9 12 16 15 21 7 5 -8 11
-8 21 1 11 9 14 9 14 -1 0 -8 3 -10 7 -7 3 4 13 1 21 -6 13 -9 14 -9 8 1 -4 7
-2 12 5 12 8 0 7 5 -2 18 -12 15 -12 16 2 5 9 -7 19 -10 22 -6 4 3 7 1 7 -5 0
-7 -4 -12 -8 -12 -5 0 -9 -6 -9 -12 0 -9 17 -13 53 -13 40 0 50 3 42 12 -6 7
-14 11 -18 8 -5 -3 -12 0 -16 7 -4 7 -4 10 1 6 4 -4 14 -3 22 4 8 6 13 7 12 2
-4 -21 2 -28 12 -14 8 13 9 12 7 -4 -2 -10 3 -21 11 -24 10 -3 11 0 5 9 -6 12
-5 12 8 1 11 -9 18 -10 23 -2 9 14 -4 32 -18 24 -7 -3 0 6 15 19 27 25 27 47
0 24 -13 -10 -14 -9 -3 12 8 15 9 21 2 17 -18 -12 -71 32 -64 52 6 15 5 15
-10 4 -14 -12 -15 -11 -7 17 5 19 5 31 -1 31 -5 0 -9 -4 -9 -10 0 -16 -36 -11
-51 7 -8 9 -9 14 -4 11 6 -3 19 -2 30 3 l20 9 -20 -2 c-11 -2 -26 1 -33 5 -7
5 -12 5 -11 0 5 -27 -2 -34 -17 -19 -18 19 -55 21 -72 4 -9 -9 -12 -8 -13 7 0
11 -3 14 -6 8 -2 -7 -9 -13 -14 -13 -6 0 -8 3 -6 8 3 4 -8 7 -24 8 -18 1 -26
-3 -22 -10 3 -6 0 -5 -8 2 -7 6 -17 12 -22 12 -4 0 -5 -6 -1 -12 4 -7 -2 -5
-13 5 -12 10 -24 14 -27 9 -3 -5 -23 -9 -43 -8 -21 1 -41 -3 -45 -9 -5 -6 -8
-5 -8 3 0 7 -5 10 -10 7 -6 -4 -7 -11 -4 -17 4 -5 -5 -3 -19 7 -17 11 -27 13
-32 5 -12 -20 -63 -41 -71 -28 -5 7 -3 8 6 3 9 -5 11 -4 6 4 -4 6 -13 8 -19 4
-7 -5 -68 -8 -137 -8 -84 -1 -133 -5 -149 -14 -14 -8 -21 -8 -17 -2 4 6 2 11
-3 11 -6 0 -11 -7 -11 -17 0 -15 -1 -15 -18 0 -23 21 -41 21 -78 2 -16 -8 -23
-15 -16 -15 10 0 9 -4 -2 -16 -17 -17 -21 -26 -8 -21 4 1 8 -2 9 -6 1 -5 9
-14 19 -21 19 -14 11 -61 -9 -49 -8 4 -7 1 1 -9 8 -10 9 -19 3 -22 -5 -4 -26
-41 -47 -84 -20 -42 -49 -102 -64 -132 -54 -108 -100 -266 -100 -341 0 -78 5
-73 -112 -115 -37 -13 -55 -27 -78 -62 -16 -25 -30 -49 -30 -53 0 -10 -57 -29
-86 -29 -41 0 -132 -40 -183 -80 -28 -22 -97 -103 -156 -182 -167 -225 -193
-256 -236 -285 -56 -37 -89 -106 -96 -197 -5 -58 -2 -77 14 -106 11 -19 32
-58 48 -87 37 -70 74 -93 203 -129 22 -6 12 -281 -18 -459 -6 -33 -12 -166
-14 -295 -5 -225 -13 -309 -30 -282 -9 14 -76 -47 -76 -70 0 -19 -42 -58 -63
-58 -9 0 -24 -11 -33 -25 -9 -14 -25 -25 -35 -25 -11 0 -53 -19 -95 -42 -65
-37 -88 -57 -150 -135 -62 -77 -75 -100 -85 -151 l-13 -60 -92 -67 c-109 -77
-230 -220 -307 -360 -46 -84 -47 -87 -31 -113 28 -48 138 -112 193 -112 81 0
91 -81 25 -204 -38 -72 -41 -91 -19 -100 26 -9 17 -49 -32 -147 -27 -52 -49
-101 -51 -110 -1 -9 -13 -38 -27 -65 -14 -27 -25 -53 -25 -57 0 -5 -11 -33
-25 -63 -14 -30 -25 -59 -25 -64 0 -5 -5 -21 -12 -37 -6 -15 -12 -39 -13 -53
-2 -26 -15 -132 -21 -164 -2 -11 -8 -23 -14 -26 -15 -9 -3 -55 21 -76 10 -9
19 -23 19 -29 0 -7 7 -18 15 -25 9 -7 13 -15 10 -18 -3 -3 4 -15 14 -26 15
-16 20 -37 22 -91 3 -89 7 -100 44 -100 28 0 30 -3 36 -45 11 -82 67 -239 96
-268 7 -7 13 -17 13 -22 0 -4 16 -25 35 -46 43 -48 45 -86 10 -172 -14 -34
-25 -75 -25 -91 0 -52 -15 -57 -171 -64 -78 -3 -145 -10 -148 -14 -3 -4 -46
-8 -96 -8 -49 -1 -99 -5 -110 -9 -11 -5 -23 -8 -27 -8 -5 1 -8 -4 -8 -10 0 -9
-2 -10 -8 -2 -4 8 -15 8 -30 3 -39 -15 -16 -26 55 -28 93 -3 92 -3 86 -17 -2
-7 -12 -10 -20 -7 -11 4 -14 2 -9 -5 4 -7 14 -12 22 -12 31 0 7 -25 -32 -33
-21 -5 -46 -11 -54 -14 -8 -3 -21 -7 -29 -9 -7 -1 -19 -8 -25 -15 -8 -9 -2
-10 27 -6 66 10 96 -15 32 -27 -43 -8 -55 -25 -15 -22 23 2 30 -2 30 -16 0
-11 6 -18 12 -17 41 5 66 -2 71 -22 3 -12 0 -22 -9 -26 -18 -7 0 -33 23 -33 8
0 12 -4 9 -8 -7 -12 26 -11 42 1 6 5 12 6 12 2 0 -4 7 -2 15 5 12 10 19 10 27
2 16 -16 138 -16 138 -1 0 8 4 8 13 1 7 -6 23 -9 35 -5 27 7 28 -6 3 -51 -20
-34 -39 -144 -44 -246 -1 -38 -6 -54 -15 -52 -6 1 -12 -2 -12 -8 0 -5 -18 -10
-40 -10 -23 0 -51 -7 -63 -15 -17 -11 -49 -13 -132 -11 -61 2 -118 6 -127 11
-11 4 -18 3 -18 -4 0 -7 -29 -11 -83 -11 -70 0 -85 3 -100 20 -20 24 -33 25
-45 4 -7 -13 -18 -15 -50 -9 -22 3 -43 13 -46 22 -7 16 -14 171 -21 461 -2
106 -7 197 -11 203 -3 6 -12 -1 -19 -15 -10 -18 -15 -90 -19 -233 -10 -354
-20 -434 -51 -439 -51 -8 -62 4 -80 84 -34 157 -49 187 -77 154 -9 -9 -18 -30
-22 -47 -3 -16 -10 -52 -16 -80 -6 -27 -15 -62 -21 -77 -11 -27 -12 -27 -41
-12 -16 8 -39 14 -51 14 -39 -4 -47 0 -47 20 l0 20 -20 -20 c-11 -11 -26 -20
-33 -21 -6 0 -50 -2 -97 -5 -111 -6 -127 -10 -133 -34 -5 -19 -13 -20 -240
-20 -173 0 -236 3 -239 12 -3 8 -12 4 -26 -10 -19 -19 -34 -22 -100 -23 -42 0
-86 -2 -97 -4 -49 -10 -290 -13 -301 -4 -25 21 -272 26 -360 8 -46 -9 -97 -9
-239 1 -301 20 -297 20 -302 41 -4 14 -9 16 -23 9 -10 -6 -46 -10 -80 -10 -56
0 -61 2 -70 26 l-10 26 -29 -31 c-16 -17 -34 -31 -40 -31 -6 0 -13 -11 -17
-25 -8 -33 -28 -48 -67 -49 l-32 -1 -3 -1522 -2 -1523 5400 0 5400 0 0 2501
c0 1887 -3 2498 -12 2493 -7 -5 -8 -3 -3 5 11 19 13 78 2 93 -6 10 -7 8 -3 -4
3 -10 1 -20 -3 -23 -5 -3 -7 -13 -5 -23 3 -9 -1 -25 -8 -35 -13 -18 -14 -17
-14 2 0 11 4 17 8 15 4 -3 8 0 8 6 0 14 -21 9 -23 -5 -2 -11 -54 -65 -62 -65
-4 0 -3 5 0 10 3 6 3 10 -2 10 -4 0 -15 -14 -23 -31 -17 -34 -35 -39 -34 -9 0
10 -3 17 -8 14 -5 -3 -6 -19 -3 -35 4 -16 2 -29 -3 -29 -9 0 -25 -36 -23 -52
0 -4 -11 -5 -24 -2 -14 2 -25 0 -25 -6 0 -5 5 -10 12 -10 6 0 8 -3 4 -7 -4 -5
-14 1 -22 11 -8 11 -14 16 -14 12 0 -5 -11 -1 -24 8 -15 10 -27 12 -31 6 -3
-6 -4 -11 -1 -11 3 -1 9 -2 14 -3 25 -5 40 -22 32 -36 -8 -13 -10 -12 -10 3 0
11 -6 17 -17 15 -24 -4 -34 -19 -27 -40 3 -10 1 -18 -5 -18 -6 0 -11 7 -11 15
0 8 -5 15 -11 15 -5 0 -7 -5 -4 -10 6 -9 -18 -41 -30 -40 -3 0 -8 0 -12 -1 -5
-1 -18 -1 -31 -1 -21 0 -21 -1 -1 -5 13 -3 19 -10 15 -20 -3 -8 -6 -17 -6 -19
0 -3 -6 -2 -12 2 -7 4 -10 4 -6 -1 4 -4 2 -15 -5 -23 -8 -10 -8 -13 -1 -9 7 4
15 0 18 -8 4 -13 2 -13 -14 -5 -25 13 -33 13 -25 -2 4 -7 0 -5 -8 5 -11 13
-16 15 -20 5 -3 -8 -9 -4 -15 12 -10 24 -11 24 -11 3 -1 -13 -5 -23 -11 -23
-12 0 -13 -27 -1 -34 5 -3 8 2 7 11 -1 12 7 18 22 19 12 1 22 -3 22 -8 0 -6
-6 -8 -14 -5 -21 8 -28 -4 -9 -18 13 -9 13 -14 3 -20 -9 -5 -11 -4 -6 3 9 15
-6 16 -21 1 -7 -7 -15 0 -26 23 -9 19 -17 26 -17 16 0 -9 5 -20 10 -23 6 -3
10 -15 10 -26 0 -13 4 -18 12 -13 7 4 8 3 4 -4 -10 -17 -26 -15 -26 3 0 8 -5
15 -11 15 -5 0 -8 4 -5 9 3 5 -1 14 -9 21 -12 10 -14 8 -10 -8 2 -12 -3 -26
-11 -33 -8 -6 -14 -16 -14 -22 0 -5 8 -3 18 6 24 22 33 21 29 -3 -4 -26 -17
-38 -17 -16 0 9 -5 14 -10 11 -6 -4 -8 -11 -5 -16 3 -5 -2 -6 -12 -3 -16 5
-15 3 2 -11 20 -16 19 -16 -6 -10 -16 4 -30 2 -34 -4 -3 -6 -10 -9 -15 -6 -5
3 -11 1 -15 -5 -10 -16 -25 -12 -18 6 3 9 13 14 24 11 11 -3 17 -1 14 3 -3 5
0 12 6 16 8 5 9 3 4 -6 -5 -9 -4 -11 4 -6 9 6 9 11 0 22 -9 12 -9 13 3 9 9 -4
18 1 21 9 4 9 2 16 -4 16 -6 0 -7 4 -4 10 4 6 -1 7 -11 3 -11 -4 -13 -8 -6
-11 7 -2 12 -8 12 -13 0 -4 -7 -6 -15 -3 -8 4 -15 1 -15 -6 0 -9 -4 -9 -17 1
-10 8 -14 9 -10 2 4 -6 3 -14 -3 -18 -6 -4 -8 -11 -5 -16 4 -5 1 -9 -5 -9 -6
0 -8 -5 -5 -10 3 -5 1 -10 -4 -10 -6 0 -11 -8 -11 -17 0 -15 -2 -16 -10 -3 -7
11 -10 11 -10 2 0 -7 -4 -11 -9 -7 -5 3 -13 0 -17 -6 -4 -8 -3 -9 4 -5 7 4 12
2 12 -3 0 -6 -4 -11 -10 -11 -5 0 -10 -5 -10 -11 0 -8 5 -8 15 1 12 10 15 9
15 -4 0 -10 -4 -15 -9 -11 -6 3 -15 -4 -21 -16 -7 -11 -14 -18 -17 -15 -3 3 0
12 7 21 7 9 8 15 2 15 -6 0 -12 -5 -14 -10 -2 -6 -14 -12 -27 -15 -26 -5 -41
-15 -22 -15 9 0 9 -5 1 -21 -7 -11 -9 -27 -6 -35 3 -9 1 -12 -5 -9 -5 4 -16 1
-25 -5 -12 -11 -14 -9 -12 11 3 20 -1 24 -22 23 -41 -2 -43 -3 -37 -24 6 -23
4 -24 -26 -9 -20 9 -20 9 -5 -4 10 -8 14 -18 10 -22 -4 -4 4 -2 18 6 14 7 29
12 33 11 5 -1 6 2 2 8 -3 6 -11 8 -16 5 -5 -4 -9 -2 -9 4 0 16 17 22 28 8 5
-6 13 -23 16 -37 5 -16 4 -20 -2 -12 -18 26 -49 -4 -43 -41 1 -5 -3 -6 -8 -2
-6 3 -8 13 -5 23 5 13 4 14 -4 3 -8 -11 -11 -11 -16 0 -3 8 -3 4 0 -8 7 -28
-7 -30 -23 -4 -14 22 -50 25 -50 4 0 -6 4 -10 8 -7 4 2 9 -1 11 -7 2 -7 21
-13 42 -14 20 -2 40 -6 44 -10 4 -4 0 -6 -8 -5 -8 1 -22 2 -30 1 -13 -1 -13
-2 0 -11 13 -8 12 -10 -5 -11 -11 -1 -30 0 -42 1 -13 1 -23 -3 -23 -8 0 -5 7
-9 16 -8 9 0 19 -6 22 -14 3 -12 2 -12 -8 -3 -7 6 -19 9 -28 6 -12 -5 -14 -1
-10 21 4 17 0 33 -11 44 -9 10 -13 13 -8 8 14 -19 7 -28 -10 -15 -11 10 -14
10 -9 2 4 -8 2 -13 -6 -13 -10 0 -9 -3 2 -9 8 -6 18 -7 22 -5 4 3 8 -2 8 -12
0 -11 -4 -14 -12 -7 -15 11 -28 11 -45 0 -7 -5 -13 -4 -13 2 0 5 -11 8 -25 6
-22 -2 -24 0 -13 14 10 12 8 12 -8 -2 -11 -9 -24 -14 -27 -10 -4 3 -7 1 -7 -5
0 -7 -5 -12 -11 -12 -5 0 -7 6 -3 13 6 9 5 9 -8 0 -8 -7 -18 -10 -21 -7 -3 4
-9 -6 -13 -20 -3 -15 -16 -32 -28 -38 -21 -11 -21 -10 -3 10 12 13 15 22 8 27
-6 3 -11 1 -11 -4 0 -21 -52 -70 -68 -64 -10 4 -13 2 -8 -5 5 -8 1 -10 -10 -5
-11 4 -15 3 -10 -5 3 -6 1 -14 -5 -18 -7 -4 -9 -3 -6 2 3 6 2 16 -4 24 -6 11
-9 7 -9 -15 0 -22 -3 -26 -9 -15 -6 8 -7 18 -4 24 4 5 1 6 -6 2 -7 -5 -10 -14
-7 -21 2 -7 -2 -21 -9 -32 -9 -10 -14 -13 -15 -5 0 6 -5 12 -12 12 -6 0 -3 -9
7 -20 10 -11 15 -20 10 -20 -4 0 -2 -7 5 -15 13 -16 35 -10 24 6 -3 5 -9 7
-13 5 -4 -3 -8 1 -8 9 0 10 4 12 12 5 7 -5 16 -6 20 -2 5 4 5 2 2 -4 -4 -7 0
-15 9 -18 8 -3 12 -10 9 -16 -9 -14 8 -13 23 2 7 7 13 9 13 5 1 -4 2 -10 3
-14 1 -5 5 -15 10 -23 7 -12 6 -13 -5 -2 -7 6 -20 12 -29 12 -12 -1 -12 -3 3
-14 16 -12 16 -14 1 -20 -8 -3 -17 -6 -18 -6 -3 0 -5 14 -8 51 -2 17 -4 18
-13 6 -5 -8 -13 -14 -17 -13 -20 3 -15 -13 6 -18 14 -3 23 -12 22 -21 -3 -21
-16 -31 -16 -13 0 9 -8 19 -17 23 -15 5 -16 4 -5 -6 18 -19 14 -33 -5 -18 -16
11 -16 11 -5 -1 7 -8 18 -15 24 -15 6 0 13 -6 16 -14 3 -9 0 -11 -8 -6 -9 5
-11 4 -6 -3 6 -11 -5 -16 -26 -13 -4 0 -12 -8 -18 -20 -9 -16 -14 -18 -26 -8
-12 10 -13 9 -8 -5 4 -11 1 -16 -11 -16 -9 0 -19 -9 -22 -21 -4 -15 -8 -17
-14 -8 -5 8 -1 21 9 33 16 18 16 18 -6 5 -12 -8 -20 -20 -17 -27 3 -7 0 -10
-5 -7 -17 11 -11 -7 8 -22 15 -12 14 -13 -13 -7 -24 4 -27 3 -15 -6 12 -9 10
-10 -10 -4 -23 6 -24 6 -10 -12 14 -18 14 -18 -2 -5 -18 13 -26 47 -10 37 5
-3 9 1 9 9 0 12 -3 12 -14 3 -8 -7 -13 -22 -10 -35 3 -15 -1 -23 -10 -23 -8 0
-11 5 -7 12 4 7 3 8 -5 4 -6 -4 -9 -11 -6 -16 3 -4 -2 -13 -10 -20 -8 -7 -15
-10 -15 -7 0 3 -17 1 -37 -4 -40 -8 -61 5 -42 27 6 8 3 16 -8 25 -16 13 -17
12 -4 -4 7 -9 10 -18 5 -19 -5 0 -13 -2 -19 -3 -5 -2 -16 -3 -23 -4 -7 0 -10
-6 -7 -11 4 -6 15 -8 26 -5 10 4 19 2 19 -4 0 -16 -44 -17 -58 -1 -10 13 -11
13 -6 -2 6 -19 -25 -39 -68 -44 -21 -3 -26 0 -21 11 4 12 9 13 18 5 10 -8 21
-7 42 4 15 8 22 15 15 16 -6 0 -11 5 -10 12 4 15 -40 19 -49 5 -4 -6 -1 -7 7
-2 8 5 11 3 8 -6 -3 -8 -12 -13 -22 -11 -15 3 -21 -13 -17 -45 1 -8 -5 -10
-15 -6 -13 5 -15 3 -9 -7 5 -9 4 -11 -3 -6 -7 4 -12 3 -12 -2 0 -5 -11 -12
-25 -14 -14 -3 -25 -1 -25 3 0 5 6 9 14 9 8 0 21 9 29 20 8 11 17 17 22 12 5
-4 5 -2 2 5 -4 6 -1 13 5 16 10 4 10 7 0 18 -11 12 -13 12 -10 -1 2 -8 -4 -14
-12 -15 -8 0 -16 -6 -16 -12 -1 -7 -2 -17 -3 -22 -2 -16 -41 -20 -41 -4 0 12
-3 12 -16 -2 -14 -13 -14 -19 -4 -28 10 -9 11 -9 6 1 -4 6 -2 12 3 12 13 0 14
-10 2 -28 -6 -10 -10 -10 -21 3 -16 20 -40 19 -40 -1 0 -14 3 -14 15 -4 12 10
15 10 15 -3 0 -10 -8 -14 -25 -12 -26 2 -34 -10 -12 -18 9 -4 9 -6 0 -6 -19
-1 -26 18 -13 34 10 12 9 15 -4 15 -9 0 -15 -3 -15 -7 6 -34 -2 -42 -37 -38
-19 3 -33 1 -30 -4 3 -5 -1 -11 -9 -15 -8 -3 -17 0 -21 6 -5 7 -2 8 5 3 10 -6
11 -3 2 14 -14 25 -23 28 -14 4 6 -16 5 -16 -10 -4 -15 12 -17 12 -11 -2 3 -8
0 -17 -8 -20 -7 -2 -5 -3 4 -2 10 2 21 -2 25 -7 3 -6 2 -8 -3 -5 -6 3 -16 2
-24 -3 -9 -5 -19 -5 -27 2 -10 8 -13 6 -14 -8 0 -18 -1 -18 -8 0 -7 17 -8 18
-14 3 -4 -10 0 -20 11 -26 9 -6 12 -11 5 -11 -6 0 -15 5 -18 10 -5 8 -11 8
-20 0 -10 -8 -15 -8 -20 0 -4 6 -4 14 -1 17 3 4 6 1 6 -7 0 -10 3 -10 15 0 8
7 15 18 15 24 0 7 -3 7 -8 1 -4 -5 -14 -10 -22 -10 -8 0 -17 -11 -18 -24 -4
-23 -32 -62 -32 -44 0 5 5 14 12 21 14 14 8 21 -20 27 -17 3 -21 -1 -19 -18 1
-12 6 -25 10 -28 5 -3 -10 -6 -33 -6 -28 0 -45 -6 -55 -19 -12 -15 -14 -15 -9
-2 7 20 -26 41 -45 29 -8 -6 -9 -11 -3 -15 6 -3 13 0 15 6 4 10 6 10 6 0 1 -7
6 -10 13 -6 6 4 8 3 4 -4 -3 -5 -20 -8 -36 -6 -25 4 -29 2 -24 -13 4 -14 3
-15 -4 -4 -12 16 -27 -3 -16 -21 5 -10 4 -10 -5 -2 -10 9 -10 17 -1 35 11 23
10 23 -5 4 -10 -12 -28 -19 -49 -20 -19 0 -38 -4 -43 -9 -4 -5 -3 -6 4 -2 6 3
15 2 18 -4 5 -8 11 -7 21 1 10 8 14 8 14 0 0 -6 -4 -12 -10 -12 -5 -1 -16 -2
-22 -3 -7 -1 -12 -7 -10 -14 1 -7 -3 -12 -9 -12 -6 0 -9 6 -6 13 3 7 -4 19
-15 26 -18 11 -18 10 -8 -9 12 -22 5 -43 -8 -24 -8 12 -83 14 -75 1 2 -4 -8
-5 -24 -2 -23 4 -24 4 -8 -4 18 -9 18 -10 2 -10 -12 -1 -16 -5 -11 -13 4 -7
-3 -4 -16 7 -13 11 -20 15 -17 9 8 -13 -19 -27 -34 -18 -5 3 -9 0 -9 -5 0 -6
-5 -11 -11 -11 -5 0 -7 4 -4 10 3 5 -11 2 -31 -6 -35 -15 -36 -14 -30 3 5 16
5 16 -6 2 -7 -9 -20 -18 -27 -21 -12 -3 -12 -6 2 -11 10 -4 17 -2 17 6 0 8 4
6 10 -3 6 -10 10 -11 10 -2 0 6 7 12 16 12 26 0 9 -25 -17 -25 -13 -1 -23 -6
-21 -13 1 -7 -3 -12 -9 -12 -6 0 -9 7 -5 15 3 8 1 15 -3 15 -5 0 -11 -5 -13
-12 -2 -6 -11 -12 -20 -14 -12 -1 -15 6 -14 26 1 16 -2 27 -6 24 -4 -3 -8 -12
-8 -19 0 -9 -7 -12 -17 -9 -15 5 -15 3 2 -11 19 -16 19 -16 -7 -11 -15 2 -30
0 -34 -5 -3 -5 -9 -7 -14 -4 -5 3 -11 1 -15 -5 -3 -5 -11 -10 -16 -10 -6 0 -8
4 -4 9 3 5 0 13 -6 17 -7 4 -9 3 -5 -4 3 -6 1 -14 -5 -17 -5 -4 -8 -14 -5 -22
4 -8 1 -11 -5 -8 -6 4 -8 13 -5 21 3 8 0 14 -7 14 -8 0 -7 4 3 10 12 7 10 9
-7 7 -18 -1 -20 -4 -11 -20 5 -10 7 -21 4 -25 -3 -3 -6 -2 -6 3 0 4 -7 2 -15
-5 -12 -10 -15 -10 -15 0 0 9 -3 10 -13 1 -8 -6 -17 -8 -20 -4 -4 3 -7 -2 -7
-13 0 -16 -2 -17 -10 -4 -15 23 -12 29 10 25 11 -2 18 0 15 5 -8 13 -40 5 -41
-11 -1 -8 -2 -18 -3 -23 0 -5 -12 1 -26 14 -14 13 -26 22 -28 19 -1 -2 -9 -13
-17 -23 -13 -18 -13 -19 0 -11 20 13 40 15 40 5 0 -14 -50 -18 -61 -4 -6 8
-15 11 -20 8 -5 -3 -9 0 -9 6 0 7 -7 4 -16 -5 -21 -21 -12 -30 15 -15 17 9 21
8 21 -6 0 -10 -2 -15 -6 -12 -3 3 -21 2 -40 -2 -30 -7 -33 -6 -23 6 9 12 9 13
-3 9 -10 -4 -18 2 -22 17 l-6 23 -21 -25 c-12 -14 -25 -24 -30 -23 -5 2 -5 -5
-2 -14 5 -11 3 -14 -6 -9 -7 5 -11 16 -8 25 3 13 -2 17 -22 16 -34 -2 -62 -15
-55 -26 3 -5 -3 -6 -12 -2 -13 5 -15 3 -9 -8 7 -11 5 -11 -10 1 -10 8 -20 14
-22 13 -1 -2 -4 0 -5 5 0 4 -7 21 -15 39 -16 40 -16 46 0 37 6 -4 4 2 -5 13
-10 11 -18 25 -18 31 0 16 -40 15 -41 0 -1 -7 -2 -17 -4 -23 -1 -5 -3 -32 -3
-58 -1 -29 -6 -46 -12 -42 -6 4 -7 -1 -3 -11 4 -12 2 -15 -8 -12 -8 3 -13 11
-11 17 1 7 -2 10 -8 6 -7 -4 -7 -12 0 -26 9 -15 7 -19 -5 -19 -10 0 -13 -5 -9
-12 5 -7 3 -8 -6 -3 -7 4 -16 2 -21 -6 -6 -10 -9 -3 -10 21 -1 24 -3 28 -6 12
-2 -12 -9 -20 -14 -16 -5 3 -7 9 -5 13 3 4 -5 7 -17 8 -12 0 -16 -1 -9 -4 6
-3 10 -8 7 -13 -3 -5 4 -12 16 -15 17 -6 19 -9 8 -16 -8 -5 -18 -9 -24 -9 -5
0 -3 5 5 10 12 8 12 10 1 10 -8 0 -19 -7 -25 -16 -10 -13 -12 -13 -12 5 0 11
4 17 8 15 4 -3 8 -1 8 3 0 5 -9 14 -21 21 -17 11 -20 11 -13 0 13 -21 14 -40
1 -35 -7 3 -11 9 -10 14 1 5 -5 10 -13 10 -12 0 -12 -3 -1 -16 28 -32 28 -39
2 -36 -14 1 -28 -1 -31 -6 -2 -5 -16 -4 -29 1 -21 8 -25 6 -26 -8 0 -13 -2
-12 -9 5 -10 25 -52 53 -48 31 4 -15 -22 -18 -42 -4 -13 9 -13 8 -3 -5 7 -9 9
-20 5 -24 -4 -5 0 -4 8 1 22 13 40 14 40 2 0 -6 -6 -8 -14 -5 -8 3 -17 3 -20
-1 -10 -10 -37 -11 -30 -1 3 5 -2 9 -11 9 -9 0 -13 -4 -10 -10 3 -5 3 -10 -2
-11 -4 0 -15 -2 -23 -5 -69 -18 -72 -18 -66 7 3 13 3 18 0 11 -5 -10 -11 -10
-29 2 -20 13 -25 13 -35 1 -6 -7 -19 -11 -28 -8 -14 4 -15 3 -2 -5 8 -6 18 -8
22 -6 4 3 8 0 8 -6 0 -7 6 -8 19 0 25 13 31 13 31 -2 0 -8 -15 -13 -40 -14
-22 0 -40 4 -40 9 0 5 -7 4 -15 -3 -8 -7 -15 -9 -15 -4 0 5 -4 3 -9 -4 -7 -11
-9 -11 -14 1 -4 11 0 15 14 12 20 -4 27 19 9 30 -6 4 -9 1 -8 -6 2 -7 -4 -13
-12 -14 -8 -1 -14 -6 -12 -13 1 -7 -5 -12 -13 -12 -9 0 -12 6 -8 18 5 14 3 14
-11 -3 -10 -11 -15 -15 -12 -9 3 6 -1 11 -8 11 -8 0 -12 -9 -10 -21 3 -12 2
-15 -2 -8 -3 6 -12 12 -20 12 -9 0 -13 4 -10 8 3 5 -1 9 -8 9 -7 0 -13 -6 -13
-13 0 -7 3 -11 7 -9 3 2 12 -1 20 -6 11 -8 8 -9 -13 -6 -15 2 -30 0 -33 -4
-10 -17 -26 -9 -22 9 7 27 -26 46 -45 27 -8 -8 -17 -11 -21 -8 -3 4 -6 1 -6
-5 0 -17 15 -15 30 3 7 8 16 12 21 9 15 -9 10 -31 -7 -38 -14 -5 -15 -4 -4 9
11 13 10 14 -4 9 -9 -3 -16 -11 -16 -18 -1 -6 -10 0 -20 13 -17 19 -20 20 -20
6 0 -17 -1 -17 -19 -1 -11 10 -24 15 -30 12 -5 -4 -14 2 -20 11 -6 10 -11 13
-11 6 0 -6 -11 -10 -25 -8 -14 1 -29 -4 -33 -12 -12 -21 -51 -25 -47 -5 5 27
6 28 13 10 7 -16 8 -16 21 3 11 19 11 21 -2 16 -8 -3 -20 0 -27 6 -8 7 -11 8
-7 1 8 -14 -31 -57 -44 -49 -5 4 -9 15 -9 25 0 25 -16 34 -37 20 -16 -9 -15
-10 5 -5 18 5 22 3 21 -17 -1 -17 -3 -18 -6 -5 -2 9 -9 15 -14 11 -6 -3 -21 2
-35 11 -13 9 -29 13 -34 10 -7 -4 -23 25 -25 47 0 3 -4 10 -9 15 -5 5 -6 -5
-2 -22 5 -25 4 -27 -5 -12 -6 10 -9 28 -6 39 4 14 0 22 -14 25 -10 3 -19 10
-19 15 0 5 6 6 13 2 9 -6 9 -5 0 7 -7 8 -15 51 -18 94 -3 44 -9 83 -13 87 -4
4 -18 9 -32 11 -23 4 -24 8 -22 53 2 27 4 60 6 74 2 14 4 32 5 41 0 9 64 81
141 159 78 79 147 155 155 171 8 15 23 34 33 41 21 15 132 180 132 197 0 6 5
11 10 11 6 0 10 5 10 11 0 5 11 34 24 62 13 29 30 70 37 92 7 22 21 50 31 63
26 35 97 192 102 225 2 19 47 67 62 67 6 0 29 12 50 28 21 15 52 34 67 42 16
8 33 22 38 32 5 10 16 18 23 18 7 0 21 9 31 20 10 12 34 30 53 42 43 26 52 16
52 -61 0 -122 83 -277 170 -319 64 -31 107 -16 183 63 31 33 75 78 96 100 45
47 81 110 81 142 0 26 33 63 56 63 8 0 41 24 72 54 55 51 119 83 146 73 7 -3
16 -18 19 -34 8 -40 63 -112 95 -124 74 -29 177 8 316 113 92 69 102 80 111
130 6 33 12 38 79 68 40 17 95 47 121 66 57 40 71 41 120 13 28 -17 39 -19 48
-10 9 9 9 16 -1 31 -6 11 -18 30 -24 42 -7 12 -23 33 -34 46 -40 45 -77 158
-86 266 -4 56 -13 120 -18 143 -6 23 -10 69 -10 102 0 33 -5 72 -11 88 -5 15
-10 88 -9 163 2 158 4 185 15 224 10 35 -10 120 -36 158 -11 14 -19 30 -19 36
0 5 -30 41 -67 80 -58 60 -77 73 -125 86 -31 9 -75 16 -98 16 l-43 0 7 50 c4
27 16 71 26 96 16 37 20 69 20 174 0 125 -1 131 -30 180 -16 28 -30 53 -30 56
0 6 -61 97 -70 104 -3 3 -17 21 -30 40 -14 19 -32 44 -42 54 -10 11 -18 22
-18 26 0 3 -27 34 -60 68 -33 34 -60 69 -60 78 0 9 9 27 19 40 10 13 25 48 31
77 8 31 25 66 44 87 57 64 96 137 127 234 16 53 34 96 40 96 5 0 21 -11 34
-25 23 -22 25 -32 25 -114 0 -50 4 -112 10 -138 5 -26 11 -73 14 -103 2 -30 6
-62 9 -70 2 -8 7 -32 12 -52 4 -21 11 -38 16 -38 5 0 9 -9 9 -20 0 -22 16 -25
57 -9 29 11 142 124 144 143 3 40 27 106 39 106 4 0 12 11 18 24 7 16 22 25
49 30 21 3 44 10 50 14 14 9 38 169 49 330 6 88 10 106 30 128 27 29 26 19 25
187 -1 114 -4 132 -24 165 -54 89 -81 178 -74 246 3 28 0 76 -5 106 -6 30 -10
66 -10 80 0 14 -4 68 -9 120 -15 156 -15 168 9 191 12 11 22 17 22 13 0 -4 11
5 25 20 21 23 23 31 14 48 -9 18 -8 24 7 35 10 7 23 13 28 13 6 0 4 -5 -4 -10
-8 -5 -10 -10 -4 -10 5 0 15 5 21 11 5 5 31 11 56 12 25 1 43 6 40 11 -8 13
20 26 41 20 11 -4 16 -2 12 4 -3 6 4 9 18 8 13 0 21 -5 18 -11 -3 -5 2 -4 11
4 9 7 14 18 10 24 -3 6 -1 7 6 3 6 -4 9 -11 7 -15 -3 -3 4 -7 14 -7 10 0 16 4
14 8 -3 4 0 8 5 8 6 0 11 -5 11 -12 0 -6 7 -3 15 8 15 19 15 19 8 -1 -6 -17
-5 -18 9 -7 11 9 18 10 23 2 4 -7 12 -7 26 0 11 6 23 8 28 5 5 -3 11 1 14 7 3
10 8 9 22 -2 10 -8 20 -14 22 -12 1 1 12 2 24 2 13 0 18 -4 13 -12 -6 -10 -4
-10 7 -2 19 14 51 26 45 16 -2 -4 -1 -14 5 -22 6 -10 9 -11 9 -2 0 6 5 12 11
12 5 0 7 -5 3 -12 -5 -8 -2 -9 9 -5 10 3 17 3 17 -2 0 -5 13 -7 29 -6 24 2 29
-1 26 -17 -4 -17 -2 -18 12 -6 14 10 15 10 9 0 -5 -9 -1 -15 11 -18 17 -5 19
-13 16 -47 -2 -23 -6 -47 -8 -54 -2 -7 2 -10 10 -6 10 3 13 13 9 29 -5 20 -2
24 15 24 23 0 28 -19 9 -39 -11 -11 -9 -11 9 0 12 7 19 17 17 21 -3 4 0 8 5 8
14 0 14 -17 0 -25 -6 -4 -8 -13 -6 -20 3 -7 -2 -12 -11 -12 -10 0 -26 -1 -36
-2 -20 -1 -20 -1 0 -16 15 -12 16 -14 2 -9 -10 3 -33 -3 -51 -15 -26 -16 -36
-18 -46 -8 -10 9 -11 8 -5 -6 7 -18 34 -19 46 -2 5 6 8 5 8 -2 0 -7 -9 -17
-20 -23 -16 -9 -18 -13 -8 -24 7 -8 16 -12 21 -9 7 4 11 -12 8 -30 -1 -5 3 -6
9 -2 12 7 -5 45 -21 45 -6 0 -7 5 -4 10 4 6 11 8 16 5 5 -4 9 0 9 7 0 10 2 10
9 -1 7 -11 9 -11 14 0 3 9 6 10 6 2 1 -6 -3 -14 -9 -18 -13 -8 0 -36 14 -29 6
3 -2 -7 -19 -22 -16 -15 -22 -25 -13 -22 16 7 35 -18 23 -30 -3 -3 -5 0 -5 6
0 6 -7 9 -15 6 -8 -4 -23 0 -33 7 -14 11 -15 11 -5 0 6 -7 10 -19 9 -25 -2 -6
-1 -8 1 -3 7 11 33 8 33 -4 0 -5 5 -7 10 -4 12 7 8 -31 -5 -42 -4 -5 -5 -2 0
6 5 9 4 12 -3 7 -8 -4 -10 -2 -6 7 9 24 -11 28 -25 5 -10 -16 -10 -18 0 -12 9
5 11 2 6 -9 -4 -11 -2 -14 8 -11 10 4 13 0 10 -15 -2 -12 0 -19 6 -16 5 4 7
10 4 15 -3 5 -1 11 5 15 5 3 10 1 10 -4 0 -6 8 -11 18 -11 9 0 13 3 7 8 -18
13 -17 58 1 73 16 13 16 12 3 -8 -11 -18 -11 -25 -1 -35 6 -6 12 -20 12 -31 0
-10 4 -16 10 -12 5 3 7 13 4 23 -5 13 -4 14 4 3 6 -8 15 -10 22 -6 9 6 11 4 5
-5 -6 -10 -1 -11 21 -6 l29 6 -25 -14 c-19 -11 -27 -11 -33 -3 -5 7 -6 4 -2
-8 4 -11 8 -26 8 -34 0 -9 7 -6 19 9 11 14 18 17 19 9 0 -8 4 -5 9 6 6 15 9
16 9 4 1 -20 45 -62 55 -52 4 4 11 1 16 -7 6 -9 10 -10 10 -3 0 7 -8 16 -17
21 -20 12 -27 43 -7 35 8 -3 11 -10 7 -16 -4 -6 0 -8 11 -4 11 5 15 3 10 -5
-5 -8 -2 -9 10 -5 11 5 15 3 10 -5 -5 -8 -1 -9 12 -5 14 6 13 2 -6 -14 -23
-19 -23 -19 -2 -9 23 11 42 6 42 -10 0 -5 -7 -7 -15 -4 -8 4 -15 4 -15 1 0 -3
7 -8 15 -11 10 -4 19 2 25 17 7 17 9 18 9 5 1 -10 6 -18 12 -18 5 0 8 4 5 8
-2 4 4 14 15 20 19 12 19 12 5 -10 -21 -32 -6 -58 21 -37 16 12 17 12 6 -2 -7
-9 -10 -19 -6 -23 4 -4 13 4 21 16 10 18 12 19 6 3 -3 -11 -7 -26 -7 -32 0
-16 -17 -17 -17 -2 0 5 -5 7 -12 3 -7 -5 -8 -3 -3 6 5 8 4 11 -3 6 -5 -3 -12
-1 -14 5 -2 7 -10 10 -16 8 -7 -2 6 -16 28 -31 23 -14 37 -29 32 -32 -5 -3
-21 4 -36 15 -14 11 -26 16 -26 11 0 -6 7 -13 16 -16 8 -3 13 -10 10 -15 -3
-5 2 -8 11 -7 10 0 18 -6 18 -14 0 -23 26 -64 34 -54 10 15 31 15 31 0 0 -7 7
-19 16 -26 8 -8 14 -9 12 -4 -2 5 2 9 7 9 6 0 9 -3 7 -7 -1 -5 2 -8 8 -8 5 0
10 5 10 11 0 5 6 7 13 3 8 -5 8 -3 -2 9 -7 9 -17 14 -22 11 -12 -7 -11 7 1 26
9 13 11 13 20 0 7 -12 10 -8 10 15 1 28 2 29 10 8 8 -20 32 -29 63 -24 11 2 8
-14 -5 -28 -11 -10 -8 -10 14 0 15 6 25 16 21 22 -3 6 -1 7 5 3 6 -4 9 -13 5
-21 -4 -11 -1 -13 11 -9 12 5 15 2 10 -10 -5 -12 -2 -15 11 -10 16 7 17 6 1
-19 -16 -24 -16 -26 4 -32 11 -3 18 -10 15 -15 -9 -15 16 -23 28 -10 9 10 9
11 -2 5 -9 -5 -12 -4 -7 3 3 5 0 13 -6 16 -9 3 -8 8 5 16 9 6 14 16 11 22 -4
7 -2 8 5 4 9 -6 9 -11 1 -21 -8 -10 -8 -19 2 -34 7 -12 16 -21 21 -21 4 0 6
-4 3 -8 -3 -5 -20 -7 -38 -6 -33 3 -33 3 4 -6 20 -5 48 -21 62 -35 31 -31 21
-34 -11 -3 -19 17 -26 19 -36 9 -9 -10 -9 -12 2 -9 7 2 16 -3 19 -11 3 -9 0
-11 -8 -6 -7 4 -16 2 -21 -6 -7 -11 -9 -11 -9 -1 0 10 -3 10 -15 -2 -8 -8 -15
-20 -15 -27 0 -7 6 -4 15 7 14 19 14 19 15 -1 0 -15 2 -17 9 -6 6 9 11 10 15
2 4 -6 0 -14 -8 -17 -14 -5 -20 -53 -6 -52 26 2 31 -3 16 -17 -18 -18 -30 -20
-20 -2 4 6 3 8 -1 4 -16 -14 -14 -36 3 -30 9 4 13 2 9 -4 -3 -5 0 -10 8 -10 8
0 15 4 15 9 0 5 10 4 21 -3 14 -7 19 -7 15 0 -4 5 8 18 25 27 24 12 28 18 18
24 -8 6 -18 2 -27 -11 -7 -11 -18 -17 -23 -14 -15 10 -10 25 6 19 26 -10 16
12 -10 24 -35 16 -43 15 -19 -3 10 -8 14 -15 7 -15 -17 0 -44 30 -37 41 3 5 9
7 14 4 5 -3 14 3 20 12 10 16 10 15 5 -4 -4 -14 -2 -23 4 -23 6 0 11 6 11 13
0 9 2 9 9 -1 4 -8 11 -12 14 -10 4 1 16 -5 27 -15 12 -10 24 -15 29 -13 4 3 8
-1 8 -8 0 -9 -7 -12 -16 -8 -10 3 -7 -5 9 -24 19 -22 20 -24 4 -11 -19 16 -22
16 -27 2 -4 -8 -12 -15 -18 -15 -8 0 -7 5 2 17 12 14 12 16 -1 11 -8 -2 -16
-14 -18 -26 -2 -12 -7 -20 -12 -17 -11 7 -7 -22 5 -32 4 -4 5 -3 2 3 -4 7 0
17 8 24 8 7 15 9 15 5 0 -4 6 -2 14 4 11 9 20 10 35 1 12 -6 21 -13 21 -16 0
-2 -9 0 -19 6 -26 14 -31 13 -25 -5 4 -8 1 -15 -6 -15 -6 0 -8 4 -5 10 3 6 -1
7 -9 4 -21 -8 -20 -18 1 -35 11 -10 14 -10 9 -1 -9 14 12 16 33 3 9 -6 22 -6
32 0 11 6 20 5 24 -1 3 -5 0 -10 -7 -10 -8 0 -23 -7 -34 -16 -18 -14 -18 -15
4 -4 18 9 27 8 38 -1 12 -10 13 -9 8 6 -5 13 -4 16 4 11 7 -4 12 -11 12 -17 0
-5 9 -18 19 -28 18 -18 19 -18 24 -2 5 20 -11 45 -33 49 -8 2 -22 10 -30 17
-10 9 -21 11 -29 5 -16 -9 -41 -3 -41 11 0 5 10 7 23 5 12 -2 28 2 36 8 11 8
13 8 7 -1 -11 -19 5 -16 19 4 9 13 14 13 20 3 5 -8 4 -11 -2 -7 -15 10 -24
-20 -10 -31 7 -5 28 -9 48 -8 27 2 35 -2 32 -11 -4 -9 1 -11 13 -7 16 5 16 4
4 -5 -11 -8 -18 -7 -27 5 -7 10 -13 11 -18 5 -3 -6 -1 -11 5 -11 6 0 8 -4 5
-10 -13 -22 -14 -49 0 -44 7 3 16 1 20 -5 3 -6 10 -11 16 -11 5 0 0 9 -11 20
-11 11 -20 25 -20 32 0 9 3 9 12 0 10 -10 19 -6 41 20 l29 33 -22 -32 c-12
-18 -18 -33 -13 -33 4 0 1 -5 -7 -11 -12 -8 -10 -9 8 -4 26 7 28 0 7 -21 -8
-9 -15 -20 -15 -27 0 -6 6 -2 14 8 19 26 46 28 41 4 -2 -10 0 -19 6 -19 5 0 9
-4 9 -10 0 -5 -7 -7 -15 -4 -8 4 -15 13 -15 21 0 8 -5 11 -11 7 -7 -4 -3 -14
12 -29 26 -24 43 -14 33 18 -3 9 -2 17 3 17 5 0 9 -19 9 -42 1 -24 3 -50 5
-58 2 -8 -1 -14 -8 -15 -6 0 -13 -2 -15 -5 -1 -3 -1 -4 1 -3 2 2 11 -3 19 -10
13 -9 14 -9 8 1 -4 7 -2 12 4 12 6 0 10 8 8 18 -4 16 34 62 50 62 4 0 -1 -7
-11 -15 -21 -15 -40 -82 -26 -91 5 -3 9 5 10 18 1 22 2 19 15 -20 2 -7 9 -10
15 -6 8 4 7 9 -2 16 -11 8 -11 9 1 5 8 -2 14 -10 12 -16 -1 -7 2 -21 8 -31 7
-14 7 -20 0 -20 -5 0 -10 6 -10 14 0 17 -38 28 -47 14 -3 -7 -1 -8 5 -4 6 3
20 -3 31 -15 12 -13 26 -19 36 -15 9 3 14 2 11 -3 -3 -5 7 -14 23 -21 19 -7
28 -17 24 -26 -3 -8 -10 -11 -17 -7 -7 4 -7 2 1 -7 10 -11 15 -11 29 1 10 8
15 9 11 2 -4 -7 0 -16 9 -21 12 -7 15 -17 11 -33 -6 -23 -5 -23 8 -5 8 10 12
23 9 27 -3 5 0 9 5 9 6 0 11 -4 11 -8 0 -5 10 -14 23 -21 21 -11 21 -11 0 -6
-12 3 -24 1 -28 -5 -4 -6 -1 -9 7 -8 8 2 13 -6 12 -19 -1 -25 15 -20 17 5 1
10 4 8 8 -7 3 -13 14 -25 24 -27 9 -1 24 -9 33 -18 8 -9 20 -16 26 -16 6 0 9
-3 6 -6 -4 -3 -20 2 -37 11 -17 9 -31 11 -31 5 0 -5 7 -10 16 -10 8 0 13 -4
10 -9 -3 -5 2 -15 11 -22 12 -10 14 -10 9 -1 -4 6 -2 12 3 12 6 0 11 -4 11
-10 0 -5 9 -10 19 -10 15 0 19 -5 15 -25 -4 -24 28 -65 50 -65 6 1 -2 11 -18
24 -24 20 -27 26 -16 42 11 18 11 18 6 0 -4 -12 2 -25 19 -38 15 -11 24 -23
21 -25 -3 -3 5 -14 17 -24 16 -14 18 -18 4 -13 -13 5 -16 2 -11 -10 4 -10 12
-15 19 -12 13 5 15 -18 2 -30 -15 -15 -6 -26 11 -13 16 13 16 13 -1 -7 -9 -11
-14 -24 -11 -27 4 -4 13 1 21 11 12 15 12 14 2 -9 -9 -21 -8 -31 6 -52 9 -14
12 -28 7 -31 -13 -8 -22 3 -16 19 7 18 -15 30 -29 15 -9 -10 -8 -12 6 -7 9 4
17 2 17 -3 0 -6 -8 -10 -17 -11 -11 0 -13 -3 -5 -6 6 -2 10 -9 7 -14 -4 -5 2
-6 11 -2 10 4 15 2 11 -3 -3 -5 5 -11 18 -12 17 -1 26 5 33 26 8 21 11 23 11
7 1 -17 3 -17 11 -5 6 9 10 10 10 3 0 -6 6 -13 13 -16 6 -2 4 -3 -5 -2 -25 4
-23 -11 2 -18 12 -3 24 1 30 11 5 10 10 13 10 8 0 -5 8 -2 17 5 10 8 14 9 10
2 -4 -6 -3 -14 3 -18 13 -8 5 -22 -20 -35 -16 -8 -18 -8 -14 5 3 8 10 12 15 9
5 -3 9 2 9 11 0 13 -4 14 -20 5 -11 -6 -18 -15 -15 -21 4 -5 1 -9 -4 -9 -6 0
-11 5 -11 10 0 13 -27 13 -36 -1 -3 -6 -1 -16 5 -22 9 -9 11 -8 6 6 -4 10 -2
17 4 17 6 0 11 -7 11 -15 0 -9 6 -12 17 -8 10 4 14 2 9 -5 -3 -6 -2 -14 4 -17
6 -4 9 -3 8 2 -2 4 1 8 7 8 5 0 9 -4 7 -8 -1 -4 6 -3 16 2 13 7 23 6 32 -2 10
-9 11 -9 5 2 -6 10 -2 12 16 7 13 -3 18 -3 12 0 -7 3 -13 13 -13 22 0 15 2 15
10 2 6 -10 10 581 10 1678 l0 1692 -786 0 c-741 -1 -784 -2 -767 -18 11 -9 14
-13 7 -9 -7 4 -18 6 -25 5 -8 -2 -13 3 -11 10 1 6 -2 12 -8 12 -5 0 -10 -4
-10 -8z m96 -11 c-4 -5 0 -12 6 -14 8 -3 6 -6 -4 -6 -10 -1 -18 6 -18 14 0 8
5 15 11 15 5 0 8 -4 5 -9z m-316 -101 c0 -5 -5 -10 -11 -10 -5 0 -7 5 -4 10 3
6 8 10 11 10 2 0 4 -4 4 -10z m-1950 -160 c0 -5 -2 -10 -4 -10 -3 0 -8 5 -11
10 -3 6 -1 10 4 10 6 0 11 -4 11 -10z m72 -13 c-8 -10 -5 -19 12 -38 29 -31
49 -69 42 -77 -3 -3 -6 -1 -6 5 0 5 -11 15 -25 21 -14 7 -25 18 -24 24 3 25
-1 38 -12 38 -8 0 -7 -5 1 -15 11 -13 10 -14 -3 -10 -8 4 -18 2 -22 -4 -9 -15
-22 -14 -22 3 0 8 6 12 13 9 11 -4 31 32 26 50 -1 4 5 7 14 7 12 0 14 -3 6
-13z m1192 -3 c9 -23 4 -24 -16 -2 -14 14 -15 18 -4 18 8 0 17 -7 20 -16z
m-1204 -64 c0 -5 -5 -10 -11 -10 -5 0 -7 5 -4 10 3 6 8 10 11 10 2 0 4 -4 4
-10z m1596 -63 c10 4 12 0 8 -11 -5 -13 -2 -15 17 -7 13 5 23 14 21 21 -1 6 2
9 8 5 6 -3 8 -9 6 -13 -2 -4 9 -7 24 -7 16 -1 27 2 24 6 -2 4 0 10 6 14 5 3
10 3 10 -2 0 -4 14 -9 30 -10 17 -1 30 2 30 8 0 6 5 7 10 4 6 -4 8 -10 6 -14
-3 -4 6 -7 19 -7 13 0 21 4 19 8 -3 4 -1 8 5 8 5 0 13 -5 16 -10 4 -6 11 -8
16 -4 14 9 69 12 64 3 -3 -3 8 -4 23 -1 15 2 48 4 75 3 27 -1 47 3 47 10 0 5
5 7 10 4 6 -4 8 -10 5 -15 -3 -5 0 -12 6 -16 7 -4 9 -3 6 3 -4 6 1 17 10 24
14 12 16 12 8 -1 -7 -13 -6 -13 7 -2 12 10 18 10 23 1 6 -8 10 -7 16 2 8 12
11 11 19 -1 8 -12 10 -12 10 -1 0 10 3 11 13 2 8 -6 17 -8 20 -5 3 3 12 2 19
-2 17 -11 39 -11 60 -2 9 5 20 4 23 -2 4 -6 10 -8 15 -5 5 3 11 1 15 -5 4 -6
11 -8 16 -5 5 4 9 1 9 -4 0 -6 5 -11 11 -11 5 0 7 6 4 13 -4 6 -1 5 7 -4 7 -9
19 -14 27 -11 10 3 11 0 5 -9 -6 -12 -5 -12 8 -1 14 11 18 10 27 -5 6 -11 11
-13 11 -5 0 10 4 9 16 -3 15 -14 17 -14 31 2 13 17 14 17 5 -2 -10 -20 -12
-27 -12 -45 0 -5 -7 -6 -17 -3 -11 4 -14 3 -9 -5 10 -16 -6 -15 -23 1 -10 8
-12 8 -7 0 3 -6 2 -14 -3 -17 -4 -3 -8 -17 -8 -32 0 -17 2 -22 7 -13 5 6 6 19
2 28 -3 9 -2 13 2 9 8 -7 14 -31 15 -61 1 -12 5 -16 14 -11 9 6 9 5 0 -8 -7
-8 -11 -17 -8 -20 3 -3 -1 -10 -9 -17 -11 -9 -15 -8 -20 5 -4 11 -2 15 8 11
15 -6 16 17 1 30 -4 4 -5 3 -2 -3 4 -7 0 -14 -8 -18 -8 -3 -12 -12 -9 -21 5
-11 2 -14 -11 -9 -11 5 -21 1 -27 -10 -5 -9 -13 -14 -18 -11 -5 3 -11 2 -14
-3 -3 -5 8 -8 24 -8 18 0 26 4 23 12 -5 14 29 14 39 -1 5 -6 8 -5 8 3 0 7 5
10 10 7 6 -3 10 -2 10 3 0 13 160 10 179 -2 10 -6 12 -6 7 2 -4 7 -1 12 8 12
9 0 16 -5 16 -11 0 -8 6 -7 17 2 11 10 14 10 9 2 -9 -16 6 -17 21 -2 7 7 14 6
24 -4 8 -7 20 -12 28 -9 10 3 12 0 7 -13 -5 -14 -4 -16 7 -7 10 9 17 8 27 -1
10 -9 11 -9 6 1 -11 18 5 15 21 -5 8 -10 12 -13 9 -6 -4 6 -2 15 4 18 6 4 10
3 9 -2 -3 -20 2 -34 11 -28 6 3 10 0 10 -7 0 -10 3 -9 10 2 7 12 12 12 29 -4
12 -11 21 -16 21 -11 0 4 7 2 15 -5 9 -7 14 -19 11 -27 -3 -8 -2 -11 3 -8 5 3
12 1 16 -5 3 -5 1 -10 -5 -10 -6 0 -8 -5 -4 -11 4 -7 -2 -6 -17 2 -22 11 -23
11 -10 -5 8 -9 10 -16 5 -14 -5 1 -20 -4 -33 -11 -19 -11 -22 -11 -16 1 3 7
-1 4 -9 -6 -12 -15 -16 -16 -16 -5 0 12 -2 12 -10 -1 -5 -8 -10 -11 -10 -6 0
5 -6 3 -14 -3 -8 -7 -28 -9 -46 -6 -17 3 -29 2 -26 -3 3 -5 -1 -9 -9 -9 -8 0
-15 4 -15 9 0 5 -8 5 -17 0 -10 -5 -26 -8 -35 -7 -10 2 -18 0 -18 -5 0 -4 -10
-6 -22 -6 -13 1 -29 -2 -35 -7 -7 -5 -13 -6 -13 -2 0 5 -9 0 -19 -9 -11 -10
-25 -15 -30 -11 -6 3 -11 1 -11 -5 0 -7 -7 -9 -16 -6 -8 3 -12 2 -9 -4 3 -6 3
-10 -2 -11 -4 0 -19 -3 -33 -5 -14 -3 -33 -5 -42 -6 -10 -1 -18 -5 -18 -8 0
-4 -16 -14 -36 -23 -19 -10 -33 -13 -29 -7 3 6 0 7 -9 4 -9 -3 -13 -10 -10
-15 3 -5 -2 -6 -10 -3 -9 3 -16 1 -16 -6 0 -7 -8 -9 -21 -5 -15 5 -19 4 -14
-5 6 -9 3 -9 -12 -1 -14 7 -23 7 -31 -1 -9 -9 -12 -9 -12 0 0 10 -5 10 -20 2
-11 -6 -20 -8 -20 -4 0 3 -8 0 -17 -7 -15 -12 -16 -12 -8 1 5 9 0 8 -13 -4
-12 -11 -22 -14 -22 -8 0 7 -5 12 -10 12 -7 0 -7 -7 0 -20 10 -19 9 -20 -8 -9
-11 7 -18 19 -15 28 3 10 2 12 -4 5 -4 -6 -16 -10 -26 -8 -9 1 -15 -2 -11 -7
3 -5 11 -6 17 -3 7 4 9 3 5 -1 -12 -13 -58 -15 -58 -3 0 7 -4 7 -12 1 -14 -11
-30 -10 -62 3 -12 5 -17 4 -13 -3 3 -5 0 -10 -8 -10 -8 0 -14 3 -13 6 2 18 -3
31 -12 31 -5 0 -6 -8 -3 -17 5 -13 1 -12 -17 5 -13 12 -29 22 -36 22 -18 0
-78 56 -66 64 5 3 12 0 15 -8 5 -12 77 -61 77 -51 0 17 -14 33 -26 28 -10 -4
-14 3 -14 22 0 14 -4 24 -10 20 -5 -3 -6 -13 -3 -22 4 -11 3 -14 -5 -9 -7 4
-12 13 -12 21 0 7 -7 15 -15 19 -8 3 -14 1 -12 -5 1 -6 -6 -16 -16 -22 -21
-14 -39 5 -30 32 4 13 3 13 -5 2 -6 -8 -8 -20 -5 -28 4 -9 0 -11 -11 -7 -11 4
-14 13 -11 24 3 10 0 22 -6 26 -8 4 -9 3 -5 -4 4 -7 1 -12 -9 -12 -9 0 -14 4
-11 8 2 4 -4 9 -15 9 -10 1 -19 -3 -19 -8 0 -6 5 -7 10 -4 6 3 10 1 10 -5 0
-7 -8 -9 -21 -5 -12 4 -19 3 -16 -2 3 -5 -3 -9 -14 -9 -11 0 -17 5 -15 11 2 5
9 9 15 8 6 -2 11 2 11 7 0 15 -16 12 -34 -6 -9 -8 -16 -12 -16 -9 0 4 -9 -3
-20 -16 -10 -13 -19 -19 -20 -13 0 5 5 15 11 21 8 8 7 13 -2 18 -8 5 -10 4 -5
-3 4 -7 3 -12 -3 -12 -5 0 -13 5 -16 10 -9 15 -22 12 -22 -4 0 -8 6 -12 14 -9
7 3 13 1 13 -5 0 -9 -22 -9 -40 -1 -3 1 -9 3 -15 4 -23 4 -45 18 -45 27 0 7 5
6 14 -1 10 -9 15 -8 19 3 4 11 1 13 -10 9 -13 -5 -15 -2 -9 12 7 18 6 18 -14
0 -17 -15 -20 -16 -20 -3 0 16 -27 33 -44 29 -4 -1 -14 6 -21 15 -7 10 -19 15
-28 11 -9 -3 -19 -2 -22 3 -3 5 -17 7 -31 4 -18 -3 -23 -1 -18 7 5 8 3 9 -7 4
-22 -14 -50 -14 -39 1 8 8 6 13 -6 18 -9 3 -19 4 -23 1 -4 -2 -7 32 -7 75 0
44 4 80 9 80 4 0 6 4 2 9 -3 6 5 20 17 32 13 12 17 19 10 14 -11 -6 -11 -3 0
14 7 12 17 21 22 21 6 0 1 7 -10 16 -10 8 -13 12 -5 8 10 -5 11 -1 6 16 -5 14
-3 20 3 16 6 -3 9 1 8 11 -2 9 -11 19 -21 23 -18 6 -18 7 0 13 10 4 19 6 20 5
1 -2 8 -14 15 -27 11 -22 14 -23 25 -8 6 9 16 13 20 9 5 -4 4 -1 0 7 -6 11 -4
13 11 7 14 -5 16 -4 7 5 -6 6 -17 8 -25 3 -34 -22 -61 3 -30 28 15 12 16 11 4
-4 -12 -15 -8 -16 43 -13 45 3 54 1 43 -8 -7 -7 -11 -11 -9 -10 2 2 11 -3 19
-10 10 -7 13 -8 9 -1 -4 7 0 17 8 24 8 7 12 17 8 24 -3 6 3 2 15 -8 20 -18 27
-15 22 9 -1 5 8 1 19 -9 23 -21 29 -9 9 14 -11 12 -10 12 5 0 16 -12 20 -12
29 1 8 11 9 11 4 -3 -3 -10 -1 -18 4 -18 6 0 10 4 10 8 0 4 11 8 24 8 14 0 22
-4 20 -8 -3 -5 -10 -5 -16 -2 -7 4 -8 2 -4 -5 11 -18 39 8 31 28 -5 12 -3 13
6 4 6 -6 18 -9 25 -6z m-2101 -50 c15 -12 16 -15 4 -22 -8 -5 -10 -4 -6 0 4 5
-3 15 -15 22 -13 7 -18 12 -12 13 5 0 18 -6 29 -13z m-30 -25 c-3 -3 -11 0
-18 7 -9 10 -8 11 6 5 10 -3 15 -9 12 -12z m1063 -9 c1 -20 -2 -23 -22 -19
-13 2 -27 2 -30 -2 -8 -7 -28 -11 -80 -17 -25 -2 -35 0 -26 5 8 5 18 6 22 4 7
-5 12 8 10 27 -1 6 85 2 105 -5 7 -3 13 -1 13 4 0 6 -9 10 -19 10 -11 0 -22 3
-24 8 -3 4 7 7 22 7 21 1 27 -4 29 -22z m27 18 c3 -5 1 -12 -5 -16 -5 -3 -10
1 -10 9 0 18 6 21 15 7z m47 -12 c2 -2 1 -3 -1 -1 -2 1 -12 -5 -22 -14 -16
-15 -17 -14 -12 4 4 17 27 25 35 11z m638 8 c0 -2 -9 -12 -19 -21 -19 -17 -19
-17 -14 3 3 12 12 21 19 21 8 0 14 -2 14 -3z m-1814 -89 c4 -7 3 -8 -4 -4 -6
3 -16 -3 -22 -15 -7 -11 -14 -18 -17 -15 -5 5 24 46 33 46 2 0 6 -5 10 -12z
m9 -28 c3 -6 -1 -7 -9 -4 -18 7 -21 14 -7 14 6 0 13 -4 16 -10z m56 -23 c-10
-9 -11 -8 -5 6 3 10 9 15 12 12 3 -3 0 -11 -7 -18z m423 -242 c-4 -8 -11 -12
-16 -9 -6 4 -5 10 3 15 19 12 19 11 13 -6z m1446 5 c0 -5 -2 -10 -4 -10 -3 0
-8 5 -11 10 -3 6 -1 10 4 10 6 0 11 -4 11 -10z m80 -71 c0 -3 -10 -5 -22 -4
-17 1 -23 8 -22 23 0 12 -5 22 -12 22 -6 0 -11 -7 -10 -16 0 -9 -6 -19 -14
-21 -13 -4 -13 -3 -1 5 13 9 13 13 0 28 -8 10 -9 15 -4 12 6 -4 17 -2 25 3 11
6 21 1 37 -19 13 -15 23 -30 23 -33z m69 -293 c-2 -2 -15 -9 -29 -15 -24 -11
-24 -11 -6 3 16 13 49 24 35 12z m-1709 -36 c0 -19 -62 -135 -76 -143 -8 -4
-14 -20 -14 -35 -1 -15 -9 -45 -20 -67 -11 -22 -19 -55 -20 -73 0 -37 -34
-110 -54 -118 -19 -7 -106 33 -127 60 -9 11 -22 53 -28 92 -12 81 -26 124 -40
124 -13 0 -19 -11 -25 -43 -2 -15 -7 -31 -10 -36 -9 -14 -43 -2 -50 17 -7 21
-20 42 -68 109 -46 63 -48 88 -10 98 80 22 542 34 542 15z m2122 -148 c3 -21
0 -28 -11 -27 -9 0 -16 5 -16 10 0 6 4 9 8 7 5 -1 6 2 2 8 -5 9 1 30 9 30 2 0
6 -13 8 -28z m-88 -208 c3 -8 2 -12 -4 -9 -6 3 -10 10 -10 16 0 14 7 11 14 -7z
m164 -164 c7 -11 11 -20 9 -20 -2 0 -12 9 -22 20 -10 11 -14 20 -9 20 5 0 15
-9 22 -20z m242 -114 c0 -3 -4 -8 -10 -11 -5 -3 -10 -1 -10 4 0 6 5 11 10 11
6 0 10 -2 10 -4z m0 -36 c0 -5 -4 -10 -10 -10 -5 0 -10 5 -10 10 0 6 5 10 10
10 6 0 10 -4 10 -10z m10 -25 c8 -1 21 2 28 8 8 6 12 6 12 -1 0 -6 -6 -12 -12
-15 -7 -2 -10 -8 -5 -12 4 -5 13 -3 19 3 7 7 17 12 23 12 6 0 7 -3 0 -8 -6 -4
-16 -19 -24 -34 -8 -16 -16 -26 -19 -23 -3 2 1 11 7 19 11 13 8 15 -23 12 -25
-3 -37 1 -42 13 -14 32 -13 43 4 36 9 -4 24 -8 32 -10z m259 -117 c-9 -16 -14
-19 -17 -9 -2 7 2 17 9 22 20 13 21 11 8 -13z m62 -35 c13 -16 12 -17 -3 -4
-10 7 -18 15 -18 17 0 8 8 3 21 -13z m34 -41 c-3 -3 -11 0 -18 7 -9 10 -8 11
6 5 10 -3 15 -9 12 -12z m115 2 c0 -8 -19 -13 -24 -6 -3 5 1 9 9 9 8 0 15 -2
15 -3z m-103 -36 c-3 -8 -6 -5 -6 6 -1 11 2 17 5 13 3 -3 4 -12 1 -19z m43 16
c0 -8 -19 -13 -24 -6 -3 5 1 9 9 9 8 0 15 -2 15 -3z m11 -101 c13 -15 17 -22
8 -15 -9 6 -20 8 -25 4 -5 -4 -6 -3 -2 2 4 5 3 15 -3 23 -21 25 -3 13 22 -14z
m-82 -67 c9 -11 6 -13 -14 -13 -20 0 -23 2 -14 13 6 8 13 14 14 14 1 0 8 -6
14 -14z m156 -6 c10 -11 16 -20 13 -20 -3 0 -13 9 -23 20 -10 11 -16 20 -13
20 3 0 13 -9 23 -20z m150 -90 c-3 -5 -12 -10 -18 -10 -7 0 -6 4 3 10 19 12
23 12 15 0z m-90 -40 c3 -5 2 -10 -4 -10 -5 0 -13 5 -16 10 -3 6 -2 10 4 10 5
0 13 -4 16 -10z m145 -26 c0 -8 -19 -13 -24 -6 -3 5 1 9 9 9 8 0 15 -2 15 -3z
m43 -64 c-3 -12 -8 -19 -11 -16 -5 6 5 36 12 36 2 0 2 -9 -1 -20z m-3 -40 c0
-5 -5 -10 -11 -10 -5 0 -7 5 -4 10 3 6 8 10 11 10 2 0 4 -4 4 -10z m47 -36
c-3 -3 -12 -4 -19 -1 -8 3 -5 6 6 6 11 1 17 -2 13 -5z m-2554 -68 c-5 -38 -30
-133 -42 -161 -56 -128 -79 -158 -119 -153 -28 3 -29 7 -23 114 1 6 17 31 36
55 19 24 35 48 35 52 0 5 9 21 19 36 11 15 23 39 26 54 5 18 14 27 26 27 11 0
22 7 26 16 9 25 22 -4 16 -40z m2728 -43 c13 -16 12 -17 -3 -4 -17 13 -22 21
-14 21 2 0 10 -8 17 -17z m78 -137 c17 -19 20 -26 9 -32 -7 -4 -10 -3 -5 1 4
5 -3 19 -15 32 -12 13 -19 23 -16 23 2 0 15 -11 27 -24z m-14 -15 c3 -5 1 -12
-5 -16 -5 -3 -10 1 -10 9 0 18 6 21 15 7z m-2515 -306 c-7 -8 -16 -15 -21 -15
-13 0 -11 24 3 38 18 18 35 -3 18 -23z m2754 -36 c-3 -5 -13 -9 -22 -8 -11 0
-12 2 -4 6 6 2 10 9 7 14 -4 5 1 6 9 3 9 -3 13 -10 10 -15z m36 -15 c0 -8 -19
-13 -24 -6 -3 5 1 9 9 9 8 0 15 -2 15 -3z m-34 -50 c-3 -8 -11 -14 -17 -14 -9
0 -9 3 0 14 6 7 9 22 5 32 -5 18 -5 18 6 1 6 -10 9 -25 6 -33z m143 -65 c-22
-13 -31 -11 -17 5 7 8 17 12 22 9 4 -3 2 -9 -5 -14z m-2985 -1434 c9 -13 16
-35 16 -49 0 -14 5 -28 10 -31 18 -11 11 -45 -12 -54 -28 -10 -38 0 -71 66
-27 52 -24 73 13 86 25 9 27 8 44 -18z m-27 -332 c9 -16 21 -33 27 -38 6 -6
16 -18 21 -27 6 -8 24 -36 42 -61 l32 -45 -13 -72 c-8 -39 -16 -73 -17 -75 -2
-1 -20 3 -39 11 -24 10 -41 27 -53 52 -23 48 -31 137 -14 154 16 14 10 60 -9
71 -16 9 -19 57 -4 57 5 0 17 -12 27 -27z m2973 -709 c0 -8 -19 -13 -24 -6 -3
5 1 9 9 9 8 0 15 -2 15 -3z m-230 -154 c-12 -8 -10 -10 8 -10 12 0 22 -5 22
-11 0 -5 -4 -7 -10 -4 -18 11 -32 -5 -19 -21 9 -12 9 -13 -3 -9 -10 4 -15 17
-15 33 2 26 16 46 26 36 3 -3 -1 -9 -9 -14z m-28 -61 c13 -20 13 -26 3 -26 -8
0 -14 3 -13 6 2 19 -3 31 -13 31 -6 0 -9 -9 -6 -20 3 -11 1 -23 -4 -26 -5 -3
-8 -1 -7 4 2 6 0 10 -4 11 -22 3 -27 -1 -23 -18 3 -15 -1 -18 -12 -14 -12 5
-14 3 -8 -7 6 -9 4 -11 -5 -5 -10 6 -9 11 5 22 11 7 16 13 12 13 -4 0 -3 9 3
20 6 11 15 18 19 15 5 -2 14 2 21 10 7 9 14 14 14 13 1 -2 9 -15 18 -29z
m-338 -191 c-3 -4 -12 -8 -20 -8 -8 0 -13 4 -10 8 3 5 12 9 20 9 8 0 13 -4 10
-9z m30 -46 c2 -4 -7 -8 -22 -9 -24 -2 -24 -1 -7 7 11 5 21 9 22 9 1 1 4 -3 7
-7z m38 -6 c7 4 8 2 4 -5 -9 -13 -26 -5 -25 12 0 9 2 8 6 -1 2 -6 10 -9 15 -6z
m-104 -14 c-9 -2 -20 -13 -24 -24 -5 -16 -8 -18 -15 -7 -12 19 -11 32 1 24 6
-3 13 0 16 9 3 9 12 12 22 8 16 -6 16 -7 0 -10z m37 -24 c3 -3 -2 -11 -10 -18
-13 -11 -16 -11 -13 1 2 8 -3 13 -10 11 -8 -1 -11 2 -8 7 6 9 31 9 41 -1z
m-145 -65 c0 -7 -6 -13 -12 -13 -10 0 -10 -2 0 -9 11 -6 10 -10 -4 -15 -9 -3
-19 -4 -22 -1 -3 3 0 5 5 5 6 0 10 11 9 23 -2 14 2 24 11 24 7 0 13 -6 13 -14z
m-90 -43 c0 -5 -2 -10 -4 -10 -3 0 -8 5 -11 10 -3 6 -1 10 4 10 6 0 11 -4 11
-10z m-27 -65 c-3 -9 -8 -14 -10 -11 -3 3 -2 9 2 15 9 16 15 13 8 -4z m-88
-16 c11 -17 -1 -21 -15 -4 -8 9 -8 15 -2 15 6 0 14 -5 17 -11z m-4882 -103
c66 -18 130 -20 208 -6 116 20 121 20 114 2 -11 -29 -42 -239 -50 -340 -7 -79
-23 -136 -56 -188 -28 -46 -39 -87 -45 -169 -3 -38 -8 -77 -11 -85 -7 -16 -8
-25 -18 -85 -10 -66 -12 -80 -15 -82 -3 -3 -7 -19 -9 -34 0 -5 -5 -7 -11 -4
-5 3 -7 0 -5 -8 3 -7 -8 -26 -24 -43 -17 -16 -31 -36 -31 -44 -1 -9 -5 -7 -10
7 -7 18 -15 21 -54 17 -27 -3 -47 0 -52 7 -5 8 -2 10 7 5 8 -4 5 0 -5 8 -12
10 -23 12 -30 7 -15 -13 -39 6 -61 49 -16 30 -20 32 -23 15 -7 -33 -23 -45
-62 -45 -20 0 -40 -3 -44 -7 -10 -11 -36 -12 -36 -2 0 5 -5 9 -11 9 -5 0 -7
-6 -3 -12 6 -10 4 -10 -7 -2 -8 6 -21 12 -29 12 -8 1 -61 3 -118 5 -56 2 -104
6 -105 8 -2 2 -14 21 -27 42 -20 35 -22 48 -18 121 7 106 40 175 86 182 12 2
62 49 62 59 0 2 14 17 31 34 28 28 30 36 25 74 -9 57 -10 78 -4 102 7 31 39
96 70 139 15 21 28 45 28 53 0 7 7 16 15 19 8 3 28 27 44 52 42 66 101 121
147 137 42 15 49 14 137 -9z m4637 4 c-8 -5 -17 -7 -19 -4 -3 3 1 9 9 14 8 5
17 7 19 4 3 -3 -1 -9 -9 -14z m-150 -278 c0 -10 5 -23 10 -28 13 -13 4 -40
-16 -48 -9 -3 -12 -1 -9 4 8 13 -1 13 -28 -1 -12 -7 -30 -13 -42 -13 -12 -1
-19 -8 -17 -16 3 -12 1 -13 -9 -3 -10 11 -9 16 6 27 15 11 22 11 28 3 5 -8 7
-4 4 10 -4 17 -1 21 13 18 11 -2 25 6 35 21 9 14 11 24 5 24 -6 0 -8 5 -5 10
10 16 25 11 25 -8z m-5870 -46 c0 -2 -7 -7 -16 -10 -8 -3 -12 -2 -9 4 6 10 25
14 25 6z m5740 -50 c0 -3 -4 -8 -10 -11 -5 -3 -10 -1 -10 4 0 6 5 11 10 11 6
0 10 -2 10 -4z m-362 -108 c-3 -14 -18 -28 -31 -28 -4 0 -2 9 5 20 14 22 29
27 26 8z m-952 -360 c-1 -16 -7 -22 -20 -20 -12 2 -16 -1 -11 -10 6 -10 5 -10
-5 -1 -19 17 -2 37 18 21 13 -11 15 -11 10 4 -4 9 -4 19 -1 22 10 9 10 8 9
-16z m-71 -28 c4 -6 -1 -7 -11 -3 -10 4 -15 2 -11 -4 3 -5 1 -10 -6 -10 -7 0
-21 -4 -32 -9 -18 -7 -18 -6 -6 9 7 9 17 14 22 11 5 -3 9 0 9 5 0 14 27 14 35
1z m-85 -15 c0 -8 -2 -15 -4 -15 -2 0 -6 7 -10 15 -3 8 -1 15 4 15 6 0 10 -7
10 -15z m-3506 -101 c3 -8 2 -12 -4 -9 -6 3 -10 10 -10 16 0 14 7 11 14 -7z
m2899 -14 c3 -11 0 -23 -5 -27 -7 -3 -8 -1 -4 5 11 19 -5 14 -21 -5 -10 -13
-10 -9 2 15 18 38 21 39 28 12z m-103 -11 c0 -5 -4 -7 -10 -4 -6 3 -7 -1 -4
-9 3 -9 1 -16 -5 -16 -12 0 -15 23 -4 33 10 10 23 8 23 -4z m18 -14 c-1 -14
-6 -25 -10 -25 -10 0 -10 13 -2 34 9 23 14 19 12 -9z m-2214 -53 c3 -5 -1 -9
-9 -9 -8 0 -12 4 -9 9 3 4 7 8 9 8 2 0 6 -4 9 -8z m41 -2 c-3 -5 -11 -10 -16
-10 -6 0 -7 5 -4 10 3 6 11 10 16 10 6 0 7 -4 4 -10z m1651 -31 c3 -6 2 -15
-4 -21 -6 -6 -11 -2 -15 11 -5 22 7 29 19 10z m-241 -19 c3 -5 -1 -10 -10 -10
-9 0 -13 5 -10 10 3 6 8 10 10 10 2 0 7 -4 10 -10z m-425 -40 c3 -1 11 -3 19
-4 8 0 17 -8 19 -16 4 -11 2 -13 -9 -4 -16 12 -29 12 -47 1 -8 -6 -12 -4 -10
5 2 7 -3 12 -10 10 -8 -1 -11 2 -8 7 5 8 26 8 46 1z"/>
<path d="M7110 10436 c0 -2 7 -7 16 -10 8 -3 12 -2 9 4 -6 10 -25 14 -25 6z"/>
<path d="M10071 10014 c0 -11 3 -14 6 -6 3 7 2 16 -1 19 -3 4 -6 -2 -5 -13z"/>
<path d="M9320 10013 c-38 -7 -56 -43 -21 -40 15 1 17 4 9 14 -11 13 3 19 16
6 10 -11 36 -12 36 -2 0 5 -5 9 -11 9 -5 0 -7 5 -4 10 3 6 5 9 3 9 -2 -1 -14
-4 -28 -6z"/>
<path d="M9262 10005 c4 -4 3 -14 -3 -22 -7 -8 -8 -13 -1 -13 15 0 23 28 9 36
-7 4 -9 4 -5 -1z"/>
<path d="M8579 9863 c-13 -16 -12 -17 4 -4 9 7 17 15 17 17 0 8 -8 3 -21 -13z"/>
<path d="M8873 9851 c0 -11 5 -18 9 -15 4 3 5 11 1 19 -7 21 -12 19 -10 -4z"/>
<path d="M9006 9773 c-6 -14 -5 -15 5 -6 7 7 10 15 7 18 -3 3 -9 -2 -12 -12z"/>
<path d="M9094 9742 c4 -3 14 -7 22 -8 9 -1 13 0 10 4 -4 3 -14 7 -22 8 -9 1
-13 0 -10 -4z"/>
<path d="M7525 10280 c-4 -6 -11 -7 -17 -4 -7 4 -8 2 -4 -5 6 -9 11 -9 21 -1
8 7 20 8 26 4 8 -4 9 -3 5 4 -9 15 -23 15 -31 2z"/>
<path d="M8490 9869 c0 -5 5 -7 10 -4 6 3 10 8 10 11 0 2 -4 4 -10 4 -5 0 -10
-5 -10 -11z"/>
<path d="M9340 8820 c0 -5 -8 -7 -17 -3 -10 3 -15 3 -12 -1 4 -4 16 -8 27 -11
15 -2 19 0 15 11 -6 16 -13 19 -13 4z"/>
<path d="M9345 3838 c-11 -13 -13 -17 -5 -10 8 6 18 12 23 12 4 0 5 -6 1 -12
-6 -10 -4 -10 7 0 9 8 10 15 3 22 -7 7 -17 3 -29 -12z"/>
<path d="M3200 10776 c0 -2 8 -10 18 -17 15 -13 16 -12 3 4 -13 16 -21 21 -21
13z"/>
<path d="M4360 10743 c0 -14 -2 -15 -9 -5 -7 11 -9 11 -14 -1 -4 -12 0 -15 14
-12 16 3 19 0 15 -12 -5 -13 -4 -14 8 -4 9 8 16 8 20 2 7 -10 46 -11 46 0 0
11 -51 29 -62 22 -7 -4 -9 0 -5 10 3 10 2 17 -3 17 -6 0 -10 -8 -10 -17z m55
-31 c-3 -3 -11 0 -18 7 -9 10 -8 11 6 5 10 -3 15 -9 12 -12z"/>
<path d="M4196 10742 c-3 -5 1 -12 9 -16 15 -5 31 11 21 21 -3 4 -6 0 -6 -8 0
-12 -2 -12 -9 0 -5 8 -11 9 -15 3z"/>
<path d="M4749 10727 c6 -8 7 -18 3 -22 -4 -5 -1 -5 6 -1 10 6 10 11 1 22 -6
8 -14 14 -16 14 -3 0 0 -6 6 -13z"/>
<path d="M9285 10730 c3 -5 8 -10 11 -10 2 0 4 5 4 10 0 6 -5 10 -11 10 -5 0
-7 -4 -4 -10z"/>
<path d="M5359 10683 c-13 -16 -12 -17 4 -4 9 7 17 15 17 17 0 8 -8 3 -21 -13z"/>
<path d="M5435 10660 c-4 -6 -11 -7 -17 -4 -7 4 -8 2 -4 -5 6 -9 11 -9 22 0
14 11 18 19 10 19 -3 0 -8 -5 -11 -10z"/>
<path d="M5492 10654 c-7 -8 -8 -14 -3 -14 10 0 25 19 20 25 -2 1 -10 -3 -17
-11z"/>
<path d="M360 10641 c0 -6 4 -13 10 -16 6 -3 7 1 4 9 -7 18 -14 21 -14 7z"/>
<path d="M5515 10640 c-3 -6 1 -7 9 -4 18 7 21 14 7 14 -6 0 -13 -4 -16 -10z"/>
<path d="M5610 10642 c0 -5 7 -9 15 -9 8 0 12 4 9 9 -3 4 -9 8 -15 8 -5 0 -9
-4 -9 -8z"/>
<path d="M8508 10613 c7 -3 16 -2 19 1 4 3 -2 6 -13 5 -11 0 -14 -3 -6 -6z"/>
<path d="M205 10510 c3 -5 8 -10 11 -10 2 0 4 5 4 10 0 6 -5 10 -11 10 -5 0
-7 -4 -4 -10z"/>
<path d="M2080 10508 c0 -4 7 -8 15 -8 8 0 15 4 15 8 0 5 -7 9 -15 9 -8 0 -15
-4 -15 -9z"/>
<path d="M5300 10491 c0 -5 7 -12 16 -15 14 -5 15 -4 4 9 -14 17 -20 19 -20 6z"/>
<path d="M7163 10472 c-1 -22 0 -24 9 -8 6 10 6 22 2 26 -5 5 -10 -3 -11 -18z"/>
<path d="M70 10480 c0 -5 5 -10 11 -10 5 0 7 5 4 10 -3 6 -8 10 -11 10 -2 0
-4 -4 -4 -10z"/>
<path d="M5276 10477 c3 -10 9 -15 12 -12 3 3 0 11 -7 18 -10 9 -11 8 -5 -6z"/>
<path d="M6757 10483 c-4 -3 -7 -11 -7 -17 0 -6 5 -5 12 2 6 6 9 14 7 17 -3 3
-9 2 -12 -2z"/>
<path d="M7195 10470 c-3 -5 -1 -10 4 -10 6 0 11 5 11 10 0 6 -2 10 -4 10 -3
0 -8 -4 -11 -10z"/>
<path d="M6955 10430 c-3 -6 1 -7 9 -4 18 7 21 14 7 14 -6 0 -13 -4 -16 -10z"/>
<path d="M7010 10431 c0 -6 4 -13 10 -16 6 -3 7 1 4 9 -7 18 -14 21 -14 7z"/>
<path d="M6366 10408 c3 -5 10 -6 15 -3 13 9 11 12 -6 12 -8 0 -12 -4 -9 -9z"/>
<path d="M6626 10378 c3 -5 10 -6 15 -3 13 9 11 12 -6 12 -8 0 -12 -4 -9 -9z"/>
<path d="M4 10306 c1 -8 5 -18 8 -22 4 -3 5 1 4 10 -1 8 -5 18 -8 22 -4 3 -5
-1 -4 -10z"/>
<path d="M6657 10289 c7 -7 15 -10 18 -7 3 3 -2 9 -12 12 -14 6 -15 5 -6 -5z"/>
<path d="M6750 10221 c0 -10 19 -25 25 -20 1 2 -3 10 -11 17 -8 7 -14 8 -14 3z"/>
<path d="M6716 10201 c-3 -5 1 -14 10 -21 12 -11 12 -15 2 -21 -11 -7 -11 -9
0 -9 8 0 10 -5 6 -12 -6 -10 -3 -9 8 0 9 8 14 20 11 28 -3 8 1 14 8 14 8 0 5
6 -7 15 -22 17 -31 18 -38 6z m29 -11 c3 -5 1 -10 -4 -10 -6 0 -11 5 -11 10 0
6 2 10 4 10 3 0 8 -4 11 -10z"/>
<path d="M6374 10186 c-10 -8 -17 -16 -14 -19 3 -2 14 4 24 14 23 22 18 25
-10 5z"/>
<path d="M6325 10170 c-3 -5 1 -10 10 -10 9 0 13 5 10 10 -3 6 -8 10 -10 10
-2 0 -7 -4 -10 -10z"/>
<path d="M6680 10140 c-8 -5 -18 -6 -24 -3 -5 3 -6 2 -3 -4 6 -10 54 -10 63 0
9 9 -23 15 -36 7z"/>
<path d="M6762 10134 c-7 -8 -8 -14 -3 -14 10 0 25 19 20 25 -2 1 -10 -3 -17
-11z"/>
<path d="M6808 10138 c12 -6 22 -16 22 -22 0 -6 4 -5 9 3 7 10 11 5 16 -18 3
-17 11 -31 16 -31 6 0 7 4 4 10 -8 13 -15 50 -9 50 2 0 9 -11 14 -25 11 -30
35 -32 50 -5 7 12 16 18 23 13 7 -4 7 0 -2 10 -15 19 -26 23 -15 6 4 -8 -1 -9
-17 -4 -13 5 -33 8 -44 9 -11 1 -23 6 -27 11 -5 6 -8 5 -8 -3 0 -9 -5 -10 -19
-2 -11 5 -23 10 -28 9 -4 0 2 -5 15 -11z m100 -32 c-7 -8 -15 -12 -17 -11 -5
6 10 25 20 25 5 0 4 -6 -3 -14z"/>
<path d="M6830 10089 c0 -5 5 -7 10 -4 6 3 10 8 10 11 0 2 -4 4 -10 4 -5 0
-10 -5 -10 -11z"/>
<path d="M6931 10078 c-13 -22 -13 -22 4 -8 17 14 18 13 12 -2 -7 -20 1 -23
23 -8 10 6 11 10 3 10 -7 0 -12 5 -10 11 4 22 -18 19 -32 -3z"/>
<path d="M6950 10029 c0 -5 5 -7 10 -4 6 3 10 8 10 11 0 2 -4 4 -10 4 -5 0
-10 -5 -10 -11z"/>
<path d="M2926 9551 c-4 -7 -5 -15 -2 -18 9 -9 19 4 14 18 -4 11 -6 11 -12 0z"/>
<path d="M8861 9453 c-1 -6 4 -15 10 -19 8 -4 7 -9 -2 -15 -8 -5 -9 -9 -4 -9
6 0 17 5 25 10 11 7 11 10 2 10 -7 0 -10 5 -6 12 4 6 3 8 -4 4 -5 -3 -13 0
-15 6 -4 9 -6 10 -6 1z"/>
<path d="M8920 9389 c0 -5 5 -7 10 -4 6 3 10 8 10 11 0 2 -4 4 -10 4 -5 0 -10
-5 -10 -11z"/>
<path d="M8833 9315 c0 -8 4 -12 9 -9 5 3 6 10 3 15 -9 13 -12 11 -12 -6z"/>
<path d="M8950 9036 c0 -2 7 -7 16 -10 8 -3 12 -2 9 4 -6 10 -25 14 -25 6z"/>
<path d="M9053 8973 c0 -16 1 -20 4 -10 3 10 9 14 16 10 7 -4 6 1 -2 10 -17
22 -16 22 -18 -10z"/>
<path d="M428 8970 c5 -13 3 -13 -10 -2 -10 8 -19 9 -22 3 -4 -5 -15 -8 -26
-6 -12 2 -18 0 -15 -6 4 -5 11 -6 17 -3 7 4 8 2 4 -4 -4 -6 -14 -8 -23 -5 -12
5 -14 3 -8 -8 7 -11 6 -12 -6 -3 -19 14 -77 -16 -71 -36 4 -11 0 -10 -12 3
-15 15 -36 16 -36 1 0 -3 5 -2 12 2 7 5 8 3 3 -5 -4 -7 -15 -11 -24 -8 -9 2
-22 -2 -29 -10 -9 -9 -19 -10 -30 -4 -9 4 -23 6 -29 4 -7 -3 -13 -1 -13 5 0 5
-7 9 -15 10 -8 1 -22 3 -30 4 -8 1 -11 6 -8 11 4 6 -1 8 -11 4 -9 -4 -15 -3
-12 2 7 10 -19 23 -28 14 -3 -4 -6 -70 -6 -149 l0 -142 25 -4 c13 -3 22 -1 19
3 -3 5 2 6 10 3 9 -3 16 -10 16 -16 0 -5 5 -6 10 -3 6 3 10 -1 10 -10 0 -9 5
-13 10 -10 13 8 8 -18 -5 -27 -6 -5 -6 -8 1 -8 7 0 9 -11 6 -26 -3 -16 -7 -21
-12 -14 -5 8 -9 7 -13 -4 -4 -9 -2 -16 3 -16 5 0 -4 -13 -20 -30 -30 -30 -47
-40 -34 -18 4 7 3 8 -5 4 -6 -4 -9 -11 -6 -16 3 -5 0 -12 -5 -15 -7 -5 -10
-57 -9 -151 1 -118 4 -142 15 -133 7 6 18 8 25 4 8 -6 7 -10 -2 -16 -8 -5 -9
-9 -3 -9 6 0 14 3 18 7 16 16 34 10 31 -10 -4 -21 -3 -21 9 -4 13 17 14 17 20
0 6 -15 8 -15 16 -3 6 8 10 10 10 4 0 -7 7 -15 16 -18 10 -4 13 -2 8 6 -4 7
-3 8 4 4 20 -12 52 -15 52 -5 0 6 7 6 18 1 9 -5 26 -8 37 -6 10 1 26 -3 34 -9
12 -10 13 -9 6 2 -5 10 -4 12 3 7 7 -4 36 -7 64 -8 41 0 48 -2 31 -9 -13 -5
-23 -11 -23 -13 0 -8 33 6 55 23 19 15 19 15 5 -2 -12 -17 -12 -18 6 -15 10 1
22 8 27 13 4 6 10 5 16 -4 8 -12 12 -12 25 -2 12 11 16 11 16 1 0 -9 3 -10 13
-1 8 6 22 12 33 14 10 1 25 7 33 11 11 7 13 5 8 -10 -7 -18 -7 -18 8 0 12 15
12 22 3 27 -8 5 -5 8 9 6 12 0 19 -5 17 -9 -3 -4 2 -5 10 -2 9 3 14 10 11 14
-3 4 4 10 15 13 13 3 18 1 13 -6 -4 -8 -2 -8 9 0 8 7 19 9 23 5 5 -4 5 -2 2 4
-4 7 1 18 10 25 14 12 16 12 8 -1 -8 -13 -6 -13 8 -1 9 7 14 18 10 25 -4 8 -3
8 6 0 10 -9 19 -5 39 13 15 14 26 30 24 35 -2 6 4 8 13 4 9 -3 13 -2 10 3 -3
5 5 17 17 25 15 11 18 16 8 17 -8 0 -4 4 8 10 13 5 28 7 33 3 5 -3 9 0 9 5 0
6 5 11 11 11 5 0 7 -5 3 -12 -4 -7 -3 -8 4 -4 17 10 3 36 -16 29 -14 -4 -15
-3 -2 5 10 8 18 8 27 0 11 -8 12 -7 7 7 -5 13 -4 16 4 11 8 -5 10 -1 5 10 -5
13 -3 15 8 9 8 -5 6 0 -4 12 -10 12 -14 23 -9 24 6 2 12 19 15 36 4 27 0 36
-21 54 -15 11 -21 18 -14 14 17 -9 15 6 -4 19 -17 13 -9 50 10 39 7 -4 7 -1
-1 9 -7 8 -9 19 -5 23 4 5 2 5 -5 1 -6 -3 -15 -1 -19 5 -4 7 -3 9 3 6 14 -9
23 27 12 44 -13 21 -11 41 4 33 8 -5 8 -2 -2 9 -15 19 -26 23 -15 5 4 -7 3 -8
-5 -4 -6 4 -9 11 -6 16 3 5 -2 15 -11 24 -8 9 -13 20 -10 25 3 5 -1 12 -10 15
-8 3 -12 2 -9 -3 3 -5 0 -13 -7 -17 -7 -4 -10 -4 -6 1 4 4 2 15 -5 23 -10 13
-9 14 2 8 9 -6 12 -5 9 5 -3 8 -13 13 -22 13 -13 -2 -14 1 -5 12 9 11 7 14
-10 14 -12 0 -20 4 -17 9 7 10 -22 26 -54 30 -5 0 -9 7 -7 14 1 6 -6 11 -15 9
-10 -2 -18 2 -18 8 0 5 -3 9 -7 9 -20 -3 -34 2 -28 11 3 6 -1 7 -9 4 -9 -3
-13 -11 -9 -17 3 -6 1 -7 -6 -3 -6 4 -9 11 -6 16 8 13 -25 21 -45 10 -13 -7
-21 -7 -26 2 -4 6 -3 8 4 4 6 -3 13 -2 17 3 6 10 -27 7 -44 -4 -5 -3 -12 -1
-15 4 -4 5 -20 7 -36 5 -25 -4 -29 -2 -23 13 5 15 3 16 -8 6 -14 -14 -33 -18
-26 -5 3 4 -7 7 -23 7 -21 1 -26 -3 -22 -15z m232 -24 c0 -3 -4 -8 -10 -11 -5
-3 -10 -1 -10 4 0 6 5 11 10 11 6 0 10 -2 10 -4z m-340 -21 c-7 -8 -17 -15
-23 -15 -6 0 -2 7 9 15 25 19 30 19 14 0z m631 -262 c13 -16 12 -17 -3 -4 -17
13 -22 21 -14 21 2 0 10 -8 17 -17z m41 -215 c-2 -10 -6 -18 -7 -18 -1 0 -5 8
-7 18 -3 11 0 19 7 19 7 0 10 -8 7 -19z m-10 -55 c-6 -2 -9 -10 -6 -15 4 -7 2
-8 -5 -4 -13 9 -5 26 12 25 9 0 8 -2 -1 -6z"/>
<path d="M9025 8959 c-4 -6 -5 -12 -2 -15 2 -3 7 2 10 11 7 17 1 20 -8 4z"/>
<path d="M9070 8945 c-20 -21 -21 -27 -10 -38 10 -9 11 -9 6 1 -11 18 4 38 16
21 6 -11 8 -9 6 6 -2 12 2 19 10 17 8 -1 11 2 7 8 -8 13 -8 14 -35 -15z"/>
<path d="M10 8950 c8 -5 20 -10 25 -10 6 0 3 5 -5 10 -8 5 -19 10 -25 10 -6 0
-3 -5 5 -10z"/>
<path d="M9165 8929 c-4 -6 -5 -12 -2 -15 2 -3 7 2 10 11 7 17 1 20 -8 4z"/>
<path d="M9196 8921 c-12 -13 -14 -21 -6 -26 6 -3 9 -1 8 6 -2 7 8 18 22 26
16 8 19 13 9 13 -9 0 -24 -9 -33 -19z"/>
<path d="M9100 8910 c-9 -6 -10 -10 -3 -10 6 0 15 5 18 10 8 12 4 12 -15 0z"/>
<path d="M9121 8887 c-8 -10 -7 -14 2 -14 8 0 14 6 14 14 0 7 -1 13 -2 13 -2
0 -8 -6 -14 -13z"/>
<path d="M9200 8873 c0 -6 8 -17 18 -24 16 -13 16 -13 2 6 -8 11 -16 22 -17
24 -2 2 -3 0 -3 -6z"/>
<path d="M9145 8859 c-4 -6 -5 -12 -2 -15 2 -3 7 2 10 11 7 17 1 20 -8 4z"/>
<path d="M9445 8761 c-3 -5 -2 -12 3 -15 5 -3 9 1 9 9 0 17 -3 19 -12 6z"/>
<path d="M9510 8749 c0 -5 5 -7 10 -4 6 3 10 8 10 11 0 2 -4 4 -10 4 -5 0 -10
-5 -10 -11z"/>
<path d="M9540 8735 c0 -10 -5 -13 -12 -9 -7 4 -8 3 -4 -4 7 -12 36 -5 36 8 0
5 -4 12 -10 15 -5 3 -10 -1 -10 -10z"/>
<path d="M9611 8621 c-8 -5 -9 -11 -3 -15 5 -3 12 1 16 9 6 17 6 18 -13 6z"/>
<path d="M9585 8590 c-3 -5 -1 -10 4 -10 6 0 11 5 11 10 0 6 -2 10 -4 10 -3 0
-8 -4 -11 -10z"/>
<path d="M960 8559 c0 -5 5 -7 10 -4 6 3 10 8 10 11 0 2 -4 4 -10 4 -5 0 -10
-5 -10 -11z"/>
<path d="M9666 8412 c-2 -4 -1 -14 4 -22 7 -11 9 -9 7 8 -1 24 -3 26 -11 14z"/>
<path d="M9936 8242 c-3 -5 1 -9 9 -9 8 0 12 4 9 9 -3 4 -7 8 -9 8 -2 0 -6 -4
-9 -8z"/>
<path d="M9960 8210 c-9 -6 -10 -10 -3 -10 6 0 15 5 18 10 8 12 4 12 -15 0z"/>
<path d="M10024 8156 c-10 -22 -10 -24 6 -14 10 7 16 18 13 25 -7 17 -6 17
-19 -11z"/>
<path d="M9990 8126 c0 -2 8 -10 18 -17 15 -13 16 -12 3 4 -13 16 -21 21 -21
13z"/>
<path d="M10109 8047 c6 -8 7 -18 3 -22 -4 -5 -2 -5 5 -1 14 8 6 36 -9 36 -7
0 -6 -5 1 -13z"/>
<path d="M10140 8018 c0 -6 7 -8 15 -4 9 3 15 0 15 -9 0 -8 4 -15 8 -15 10 0
12 30 3 31 -3 0 -14 2 -23 4 -10 2 -18 -1 -18 -7z"/>
<path d="M10176 7962 c-2 -4 0 -14 6 -22 8 -12 9 -12 5 2 -3 9 -1 19 6 22 9 3
9 5 0 5 -6 1 -14 -3 -17 -7z"/>
<path d="M10231 7962 c-1 -8 -6 -10 -13 -6 -10 5 -10 4 -1 -6 15 -16 28 -8 20
12 -4 11 -6 11 -6 0z"/>
<path d="M10286 7888 c3 -5 10 -6 15 -3 13 9 11 12 -6 12 -8 0 -12 -4 -9 -9z"/>
<path d="M10290 7861 c0 -7 -5 -9 -12 -5 -7 5 -8 3 -3 -5 5 -9 10 -10 18 -2 6
6 8 14 4 18 -4 3 -7 1 -7 -6z"/>
<path d="M10418 7773 c6 -2 10 -9 7 -13 -3 -5 -2 -11 3 -14 4 -2 9 4 9 15 1
12 -4 19 -15 18 -11 0 -12 -2 -4 -6z"/>
<path d="M10376 7758 c3 -5 10 -6 15 -3 13 9 11 12 -6 12 -8 0 -12 -4 -9 -9z"/>
<path d="M10395 7740 c-3 -5 -1 -10 4 -10 6 0 11 5 11 10 0 6 -2 10 -4 10 -3
0 -8 -4 -11 -10z"/>
<path d="M10415 7719 c-3 -4 2 -6 10 -5 21 3 28 13 10 13 -9 0 -18 -4 -20 -8z"/>
<path d="M10434 7694 c-18 -14 -18 -15 4 -4 27 13 46 4 37 -19 -4 -11 -3 -13
5 -5 13 13 3 44 -14 44 -7 0 -21 -7 -32 -16z"/>
<path d="M10500 7680 c0 -5 5 -10 11 -10 5 0 7 5 4 10 -3 6 -8 10 -11 10 -2 0
-4 -4 -4 -10z"/>
<path d="M1907 7663 c-10 -9 -9 -23 1 -23 5 0 17 7 28 15 19 14 19 14 -2 15
-11 0 -24 -3 -27 -7z"/>
<path d="M10476 7644 c-14 -14 -14 -34 0 -34 3 0 3 4 -1 9 -3 5 -1 12 4 15 5
3 11 -3 14 -14 3 -10 0 -21 -7 -23 -7 -3 -3 -13 12 -29 24 -27 30 -47 8 -28
-13 10 -13 8 -3 -14 12 -24 12 -24 20 -4 4 12 3 26 -4 34 -8 10 -8 14 -1 14 6
0 16 -8 21 -17 6 -10 11 -13 11 -6 0 6 -5 15 -10 18 -6 4 -8 10 -5 15 3 5 1
11 -5 15 -5 3 -10 11 -10 16 0 6 4 8 9 4 5 -3 13 0 17 6 4 8 3 9 -4 5 -7 -4
-12 -2 -12 3 0 6 -10 11 -22 12 -22 0 -22 1 -3 9 16 7 17 9 3 9 -9 1 -24 -6
-32 -15z m44 -18 c0 -3 -4 -8 -10 -11 -5 -3 -10 -1 -10 4 0 6 5 11 10 11 6 0
10 -2 10 -4z m-1 -47 c-15 -9 -32 -2 -24 11 3 5 13 6 21 3 12 -4 13 -8 3 -14z"/>
<path d="M421 7467 c-12 -30 -7 -33 17 -9 17 17 18 21 6 26 -9 4 -18 -3 -23
-17z"/>
<path d="M10768 5317 c9 -10 10 -17 2 -22 -16 -10 -12 -25 7 -18 11 4 14 3 9
-6 -5 -7 -15 -10 -23 -7 -11 5 -14 2 -9 -11 4 -11 -1 -9 -14 7 -11 14 -19 18
-18 10 2 -8 -3 -14 -10 -12 -8 1 -11 -2 -7 -8 3 -6 11 -8 16 -5 5 4 9 -4 9
-15 0 -17 4 -21 18 -15 14 5 15 4 4 -7 -11 -11 -16 -10 -28 6 -8 11 -14 15
-14 9 0 -7 5 -15 10 -18 8 -5 7 -12 -2 -23 -11 -15 -11 -15 3 -4 13 10 19 9
29 -3 7 -8 17 -12 23 -8 6 3 7 1 3 -6 -6 -9 -11 -9 -22 0 -8 6 -17 9 -21 5 -3
-3 -1 -6 6 -6 7 0 9 -5 6 -10 -4 -6 -3 -10 2 -9 20 3 32 -2 29 -13 -1 -7 -1
-10 1 -5 3 4 8 5 12 3 4 -3 7 21 7 52 -1 42 -5 56 -14 54 -8 -1 -11 2 -7 8 3
6 11 8 16 5 10 -7 8 23 -4 42 -4 6 -3 13 3 15 6 2 0 9 -12 17 -21 13 -22 13
-10 -2z"/>
<path d="M10720 5022 c0 -7 -5 -11 -12 -9 -6 1 -14 -7 -16 -18 -4 -19 -3 -19
19 2 13 12 20 26 16 29 -4 4 -7 2 -7 -4z"/>
<path d="M10605 5011 c-3 -5 -2 -12 3 -15 5 -3 9 1 9 9 0 17 -3 19 -12 6z"/>
<path d="M9236 4996 c3 -9 11 -16 16 -16 13 0 5 23 -10 28 -7 2 -10 -2 -6 -12z"/>
<path d="M10582 4940 c2 -9 -3 -14 -12 -12 -8 2 -12 0 -8 -4 11 -10 -12 -35
-25 -27 -5 3 -7 1 -3 -5 3 -5 3 -12 -1 -15 -5 -2 -2 -2 5 -1 7 2 17 -6 23 -19
8 -19 9 -19 4 6 -4 22 0 34 16 48 18 16 20 22 10 32 -10 9 -12 9 -9 -3z"/>
<path d="M10490 4886 c7 -7 13 -7 20 0 6 6 3 10 -10 10 -13 0 -16 -4 -10 -10z"/>
<path d="M10504 4858 c4 -17 38 -17 44 0 3 11 0 12 -16 3 -14 -7 -22 -7 -25
-1 -3 6 -4 5 -3 -2z"/>
<path d="M10415 4826 c10 -14 19 -26 22 -26 7 0 -17 39 -28 46 -6 3 -3 -5 6
-20z"/>
<path d="M10314 4701 c1 -16 4 -27 9 -24 10 6 9 41 -2 47 -4 3 -8 -8 -7 -23z"/>
<path d="M10286 4688 c3 -5 10 -6 15 -3 13 9 11 12 -6 12 -8 0 -12 -4 -9 -9z"/>
<path d="M10161 4594 c0 -11 3 -14 6 -6 3 7 2 16 -1 19 -3 4 -6 -2 -5 -13z"/>
<path d="M9926 4482 c-3 -5 1 -9 9 -9 8 0 12 4 9 9 -3 4 -7 8 -9 8 -2 0 -6 -4
-9 -8z"/>
<path d="M9970 4450 c-9 -6 -10 -10 -3 -10 6 0 15 5 18 10 8 12 4 12 -15 0z"/>
<path d="M9947 4429 c7 -7 15 -10 18 -7 3 3 -2 9 -12 12 -14 6 -15 5 -6 -5z"/>
<path d="M9886 4388 c5 -7 9 -19 10 -26 2 -8 6 -17 10 -20 4 -4 4 1 1 10 -3 9
-2 18 4 20 5 2 0 9 -12 16 -17 11 -20 11 -13 0z"/>
<path d="M9758 4318 c4 -18 2 -20 -14 -14 -14 5 -16 4 -7 -5 6 -6 16 -8 22 -5
13 9 14 33 2 40 -5 4 -7 -4 -3 -16z"/>
<path d="M9627 4213 c3 -7 8 -13 12 -13 4 0 8 6 8 13 0 8 -6 14 -13 14 -7 0
-10 -6 -7 -14z"/>
<path d="M9420 4131 c0 -7 -7 -11 -14 -8 -10 4 -13 1 -9 -9 5 -14 7 -14 21 0
9 9 13 19 9 22 -4 4 -7 2 -7 -5z"/>
<path d="M9156 3785 c-9 -26 -7 -32 5 -12 6 10 9 21 6 23 -2 3 -7 -2 -11 -11z"/>
<path d="M9034 3714 c1 -7 6 -17 11 -21 4 -4 5 -2 1 5 -4 6 -3 12 3 12 5 0 12
-6 14 -12 4 -8 6 -7 6 3 1 9 -8 19 -18 22 -12 3 -18 0 -17 -9z"/>
<path d="M8996 3702 c-3 -5 1 -9 9 -9 8 0 15 4 15 9 0 4 -4 8 -9 8 -6 0 -12
-4 -15 -8z"/>
<path d="M8710 3645 c0 -2 6 -8 13 -14 10 -8 14 -7 14 2 0 8 -6 14 -14 14 -7
0 -13 -1 -13 -2z"/>
<path d="M8575 3580 c-3 -5 -1 -10 4 -10 6 0 11 5 11 10 0 6 -2 10 -4 10 -3 0
-8 -4 -11 -10z"/>
<path d="M8575 3550 c3 -5 8 -10 11 -10 2 0 4 5 4 10 0 6 -5 10 -11 10 -5 0
-7 -4 -4 -10z"/>
<path d="M8263 3451 c1 -12 6 -20 12 -18 14 5 13 29 -2 34 -7 3 -11 -4 -10
-16z"/>
<path d="M8206 3437 c3 -10 9 -15 12 -12 3 3 0 11 -7 18 -10 9 -11 8 -5 -6z"/>
<path d="M8235 3440 c-3 -5 -1 -10 4 -10 6 0 11 5 11 10 0 6 -2 10 -4 10 -3 0
-8 -4 -11 -10z"/>
<path d="M7520 3266 c-10 -13 -9 -17 6 -22 11 -4 22 -9 26 -11 10 -5 3 26 -9
38 -7 7 -14 5 -23 -5z m25 -6 c3 -5 -1 -10 -10 -10 -9 0 -13 5 -10 10 3 6 8
10 10 10 2 0 7 -4 10 -10z"/>
<path d="M7647 3265 c-4 -8 -2 -17 3 -20 6 -4 10 3 10 14 0 25 -6 27 -13 6z"/>
<path d="M7425 3230 c-4 -6 -11 -7 -17 -4 -7 4 -8 2 -4 -5 4 -6 11 -9 16 -6 4
3 10 -1 13 -7 2 -8 8 -9 13 -4 5 5 4 11 -4 13 -6 3 -10 9 -6 14 3 5 3 9 0 9
-3 0 -8 -5 -11 -10z"/>
<path d="M7341 3211 c-8 -5 -9 -11 -3 -15 5 -3 12 1 16 9 6 17 6 18 -13 6z"/>
<path d="M6963 3172 c2 -31 27 -39 35 -11 3 11 1 11 -7 -1 -6 -8 -11 -13 -12
-10 -6 34 -8 43 -12 46 -3 3 -4 -8 -4 -24z"/>
<path d="M6796 3115 c-3 -8 -1 -15 4 -15 13 0 22 18 11 24 -5 3 -11 -1 -15 -9z"/>
<path d="M6630 3069 c-13 -9 -13 -10 1 -6 9 3 23 0 30 -6 11 -10 11 -9 0 6 -7
9 -14 17 -15 17 0 0 -8 -5 -16 -11z"/>
<path d="M5604 3059 c1 -7 10 -13 19 -15 9 -1 15 2 11 7 -3 5 -9 7 -14 4 -4
-3 -11 0 -13 5 -3 6 -4 5 -3 -1z"/>
<path d="M6435 3059 c-4 -6 -13 -8 -21 -5 -8 3 -11 0 -7 -10 3 -9 -2 -14 -16
-14 -12 0 -21 -5 -21 -11 0 -7 7 -8 18 -4 9 4 22 8 29 8 7 0 10 4 8 8 -7 10
21 30 30 21 5 -4 5 -1 1 6 -9 15 -13 15 -21 1z"/>
<path d="M6580 3060 c18 -12 30 -13 30 -2 0 4 -10 9 -22 9 -18 2 -20 0 -8 -7z"/>
<path d="M5651 3037 c-13 -21 -12 -21 5 -5 10 10 16 20 13 22 -3 3 -11 -5 -18
-17z"/>
<path d="M5720 2989 c0 -5 5 -7 10 -4 6 3 10 8 10 11 0 2 -4 4 -10 4 -5 0 -10
-5 -10 -11z"/>
<path d="M6056 2983 c-6 -14 -5 -15 5 -6 7 7 10 15 7 18 -3 3 -9 -2 -12 -12z"/>
</g>
</svg>
